<?xml version="1.0" encoding="UTF-8"?>
<!DOCTYPE svg PUBLIC "-//W3C//DTD SVG 1.1//EN" "http://www.w3.org/Graphics/SVG/1.1/DTD/svg11.dtd">
<!-- Creator: CorelDRAW 2019 (64-Bit) -->
<svg xmlns="http://www.w3.org/2000/svg" xml:space="preserve" width="16.9332mm" height="16.9332mm" version="1.1" style="shape-rendering:geometricPrecision; text-rendering:geometricPrecision; image-rendering:optimizeQuality; fill-rule:evenodd; clip-rule:evenodd"
viewBox="0 0 1693.32 1693.32"
 xmlns:xlink="http://www.w3.org/1999/xlink">
 <defs>
  <style type="text/css">
   <![CDATA[
    .fil0 {fill:black}
   ]]>
  </style>
 </defs>
 <g id="Layer_x0020_1">
  <metadata id="CorelCorpID_0Corel-Layer"/>
  <g id="_2457044984464">
   <path class="fil0" d="M123.27 1287.28c4.5,1.9 9.46,7.95 13.71,11.29 5.41,4.24 9.05,6.71 15.77,10.47 27.55,15.42 54.85,14.72 86,10.5 42.25,-5.73 91.47,0.58 108.41,-44.79 6.99,-18.69 3.96,-75.12 3.96,-99.38l0 -307.54c0,-30.28 -4.38,-71.81 7.57,-95.63 10.44,-20.83 32.55,-38.9 62.09,-39.64 33.59,-0.86 68.43,0.08 102.17,0.13 38.51,0.06 55.11,3.15 75.23,26.26 19.65,22.57 16.68,50.35 16.68,86.46 0,137.18 0,274.35 0,411.52 12.36,-2.1 28.66,-6.97 41.81,-10.22 59,-14.61 54.22,-51.62 54.22,-101.22l-0.01 -516.72c0.04,-33.32 15.06,-54.35 37.81,-66.95 23.15,-12.82 64.85,-8.65 94.25,-8.65 31.13,0 69.88,-4.35 94.05,8.88 21.87,11.98 37.13,33.23 37.72,65.45 0.61,34.24 0,69.06 0.01,103.37l0 310.03c0,33.5 -1.69,71.56 0.2,104.51 8.87,-1.42 63.75,-24.64 73.92,-33.09 25.52,-21.19 21.79,-46.49 21.79,-85.12l0 -535.4c0,-37.27 -4.82,-66.12 15.76,-91.51 20.3,-25.02 39,-27.22 80.27,-27.22 19,0 93.6,-1.07 106.34,0.93 28.51,4.46 50.07,24.33 57.86,49.23 6.41,20.49 3.6,77.79 3.6,103.44 0,71.39 0,142.77 0,214.15 0,70.55 -2.06,144.18 0.11,214.32 6.66,-1.75 55.87,-40.72 64.67,-47.65 80.26,-63.23 165.42,-142.98 227.27,-224.76 44.72,-59.13 23.04,-111.07 -3.62,-171.42l-27.25 -57.37c-3.14,-5.85 -7.83,-13.21 -9.92,-19.4 -0.19,-7.47 -9.35,-19.18 -13.39,-25.92 -2.08,-3.48 -3.34,-5.02 -5.45,-8.25 -20.47,-31.29 -30.06,-46.96 -54.79,-78.43l-69.39 -77.53 -49.71 -44.92c-9.78,-8.53 -19.56,-16.07 -29.61,-23.93l-38.25 -27.74c-3.02,-2.17 -4.96,-3.58 -8.06,-5.64 -5.83,-3.86 -10.71,-6.77 -16.68,-10.72l-99.09 -54.04c-1.74,-0.84 -3.39,-1.44 -5.3,-2.19 -4.01,-1.57 -5.01,-2.05 -8.59,-3.85 -9.56,-4.85 -19.16,-7.56 -29.05,-12.03l-80.63 -27.7 -42.9 -10.65c-6.99,-1.17 -13.39,-3.39 -21.2,-4.93l-106.02 -14.77c-8.91,-0.7 -18.11,-1.1 -27.45,-1.31l-59.04 0c-1.86,0.01 -3.73,0.01 -5.58,0.01 -14.74,-0.02 -36.08,0.94 -50.53,3.01l-47.74 5.79c-7.89,0.87 -16.04,3.43 -22.85,4.55 -8.38,1.38 -15.4,2.33 -22.4,3.75l-134.34 39.96 -100.89 47.28c-11.3,6.87 -23.05,12.21 -34.07,19.47l-8.26 5.44c-3.17,1.98 -5.24,3.38 -8.42,5.27l-98.61 74.47 -54.1 51.73c-0.19,0.17 -0.45,0.43 -0.63,0.6 -22.14,21.21 -68.22,78.25 -84.45,103.56l-52.56 86.91c-0.96,1.86 -1.45,3.26 -2.4,5.07l-13.25 26.59c-1.55,3.68 -2.79,5.58 -4.52,9.17 -1.73,3.62 -2.38,5.98 -4.12,9.58 -10.44,21.55 -18.25,45.19 -26.75,67.87 -7.49,19.96 -13.61,41.26 -18.72,62.21 -0.76,3.08 -1.94,6.25 -2.9,9.55 -5.72,19.5 -12.8,59.01 -15.63,79.01 -1.08,7.61 -1.59,15.12 -2.76,23.38 -0.91,6.46 -2.73,16.37 -3.31,24.08 -0.55,7.29 -0.99,17.08 -1.33,28.32l0 103c0.33,10.27 0.75,19.43 1.32,26.66 3.42,44.5 13.86,92.72 24.58,136.03 7.66,30.93 17.77,60.87 29.05,90.48l7.71 19.68c1.69,3.59 3.16,5.93 4.4,9.29 7.88,21.12 37.44,81.44 50.34,97.83 2.35,2.98 3.77,4.8 5.87,7.69z"/>
   <path class="fil0" d="M348.63 1531.48c9.01,7.76 23.09,16.69 33.23,22.78l39.96 24.78c19.2,11.5 49.33,27.5 68.94,35.65l94.71 37.29c29.34,9.59 59.56,18.12 89.92,23.38l15.26 3.41c9.9,1.62 21.49,3.13 32.05,5.3 21.35,4.42 46,4.25 68.44,7.51 7.45,1.09 24.15,1.61 42.52,1.75l19.67 0c19.53,-0.14 38.03,-0.62 46.82,-1.3 5.99,-0.45 9.33,-2.3 16.23,-2.46 28.43,-0.61 56,-6.11 84.34,-10.28l45.68 -10.35c6.38,-1.38 10.1,-2.15 16.19,-3.72l29 -8.37c4.72,-1.79 10.06,-3.07 14.34,-4.32 23.83,-6.99 45.98,-16.44 69.09,-25.54l32.02 -14.05c4.12,-1.76 2.97,-1.44 6.54,-3.42 12.26,-6.82 25.96,-11.98 37.99,-19.29 12.12,-7.38 24.92,-13.06 36.42,-20.85l34.23 -21.8c22.86,-13.64 43.82,-32.17 64.82,-48.48l68.82 -63.17 61.1 -70.87c5.86,-7.66 10.61,-13.4 15.99,-21.37l26.75 -39.23c1.96,-3.18 2.47,-3.27 4.09,-5.89l21.22 -36.05c10.88,-20.13 22.33,-40.75 31.96,-61.42 10.11,-21.68 19.07,-44.73 27.64,-66.98l9.13 -28.23c1.37,-4.9 3.39,-8.54 4.91,-13.76 5.85,-20.06 11.74,-40.25 15.27,-60.68 1.75,-10.13 4.73,-17.48 6.6,-30.76l8.33 -57.66c0.58,-3.18 1.52,-5.3 1.83,-8.14 1.47,-13.56 2.25,-27.75 2.65,-42.21l0 -97.64 -1.07 -8.14c-17.81,24.57 -35.93,50.71 -55.19,75.65 -18.52,23.99 -70.88,86.51 -91.3,105.5 -10.98,10.2 -21.14,21.83 -32.1,32.64 -22.28,21.98 -44.34,41.3 -68.07,62.62 -106.94,96.04 -262.73,193.78 -395.49,256.98 -191.11,90.99 -382.21,151.21 -591.8,191.53 -15.89,3.06 -103.5,16.06 -109.68,19.66z"/>
  </g>
 </g>
</svg>
