<?xml version="1.0" encoding="UTF-8"?>
<!DOCTYPE svg PUBLIC "-//W3C//DTD SVG 1.1//EN" "http://www.w3.org/Graphics/SVG/1.1/DTD/svg11.dtd">
<!-- Creator: CorelDRAW 2019 (64-Bit) -->
<svg xmlns="http://www.w3.org/2000/svg" xml:space="preserve" width="16.9332mm" height="16.9332mm" version="1.1" style="shape-rendering:geometricPrecision; text-rendering:geometricPrecision; image-rendering:optimizeQuality; fill-rule:evenodd; clip-rule:evenodd"
viewBox="0 0 1693.32 1693.32"
 xmlns:xlink="http://www.w3.org/1999/xlink">
 <defs>
  <style type="text/css">
   <![CDATA[
    .fil0 {fill:#FDBC3E;fill-rule:nonzero}
   ]]>
  </style>
 </defs>
 <g id="Layer_x0020_1">
  <metadata id="CorelCorpID_0Corel-Layer"/>
  <path class="fil0" d="M630.59 1006.06c0,-27.39 -22.21,-49.61 -49.61,-49.61l-318.83 0c-27.39,0 -49.61,22.22 -49.61,49.61l0 488.82 418.05 0 0 -488.82zm1013.12 588.04l-1544.49 0 0 -1544.49c0,-27.41 -22.21,-49.62 -49.61,-49.62 -27.41,0 -49.62,22.21 -49.62,49.62l0 1594.1c0,27.41 22.21,49.62 49.62,49.62l1594.1 0c27.41,0 49.62,-22.21 49.62,-49.62 0,-27.4 -22.21,-49.61 -49.62,-49.61zm-481.76 -1544.49c0,-27.41 -22.22,-49.62 -49.61,-49.62l-318.82 0c-27.39,0 -49.61,22.21 -49.61,49.62l0 1445.27 418.04 0 0 -1445.27zm481.76 428.62l-318.82 0c-27.39,0 -49.61,22.21 -49.61,49.6l0 967.05 368.43 0c17.4,0 34.09,3.04 49.62,8.53l0 -975.58c0,-27.39 -22.21,-49.6 -49.62,-49.6z"/>
 </g>
</svg>
