<?xml version="1.0" encoding="UTF-8"?>
<!DOCTYPE svg PUBLIC "-//W3C//DTD SVG 1.1//EN" "http://www.w3.org/Graphics/SVG/1.1/DTD/svg11.dtd">
<!-- Creator: CorelDRAW 2019 (64-Bit) -->
<svg xmlns="http://www.w3.org/2000/svg" xml:space="preserve" width="16.9332mm" height="16.9332mm" version="1.1" style="shape-rendering:geometricPrecision; text-rendering:geometricPrecision; image-rendering:optimizeQuality; fill-rule:evenodd; clip-rule:evenodd"
viewBox="0 0 1693.32 1693.32"
 xmlns:xlink="http://www.w3.org/1999/xlink">
 <defs>
  <style type="text/css">
   <![CDATA[
    .fil19 {fill:#020100}
    .fil10 {fill:#020202}
    .fil28 {fill:#050502}
    .fil18 {fill:#050505}
    .fil32 {fill:#0A0402}
    .fil22 {fill:#1A1A1A}
    .fil30 {fill:#333333}
    .fil24 {fill:#414141}
    .fil15 {fill:#6F6F6F}
    .fil17 {fill:gray}
    .fil5 {fill:#848484}
    .fil14 {fill:#8C8C8C}
    .fil2 {fill:#919191}
    .fil8 {fill:#999999}
    .fil23 {fill:#9B9B9B}
    .fil0 {fill:#9D9D9D}
    .fil29 {fill:#A2A2A2}
    .fil16 {fill:#A4A4A4}
    .fil7 {fill:#A5A5A5}
    .fil20 {fill:#B5B5B5}
    .fil27 {fill:#B7BDD2}
    .fil26 {fill:#BCBCBC}
    .fil25 {fill:silver}
    .fil12 {fill:#C3C3C3}
    .fil6 {fill:#C4C4C4}
    .fil3 {fill:#C5C5C5}
    .fil4 {fill:#CBCBCB}
    .fil31 {fill:#CCCCCC}
    .fil13 {fill:#FAFAFA}
    .fil21 {fill:#FCFAF6}
    .fil11 {fill:#FDFDFD}
    .fil33 {fill:#FEFCFA}
    .fil9 {fill:#FEFEFD}
    .fil1 {fill:white}
   ]]>
  </style>
 </defs>
 <g id="Layer_x0020_1">
  <metadata id="CorelCorpID_0Corel-Layer"/>
  <g id="_2056182814992">
   <path class="fil0" d="M729.28 356.65c32.21,0 70.45,8.1 94.74,26.59 3,2.28 13.54,11.92 15.54,15.3 4.27,7.19 2.06,16.37 -4.09,20.41 -8.76,5.76 -14.08,3.75 -21.33,-1.93 -7.57,-5.94 -12.36,-7.38 -19.16,-11.12 -6.89,-3.79 -13.9,-6.36 -22.06,-8.79 -7.36,-2.2 -15.67,-5.16 -23.26,-6.68 -8.11,-1.63 -17.13,-3.15 -25.27,-5.09 -9.97,-2.38 -39.8,-6.38 -52.25,-8.47 -4.81,-0.8 -9.33,-0.29 -9.76,-5.72 -0.44,-5.47 3.76,-6.47 7.4,-7.43 21.57,-5.71 35.96,-7.07 59.5,-7.07zm359.17 -14.63c6.04,0 33.27,0.58 37.01,5.44 6.92,9.02 -9.64,11.57 -12.9,12.58 -17.66,5.49 -35.38,9.77 -52.4,15.81 -15.21,5.39 -15.8,5.86 -29.37,12.09 -12.47,5.72 -22.42,13.57 -31.79,23.09 -12.22,12.4 -35.29,-5.74 -13.63,-30.5 24.11,-27.55 62.59,-38.5 103.08,-38.51zm-343 -33.84c-16.71,-0.01 -45.35,-8.21 -41.82,-26.77 5.96,-31.29 90.79,-29.11 90.18,1.85 -0.17,8.28 -9.11,15.76 -15.61,18.73 -11.58,5.3 -19.67,6.2 -32.75,6.19zm301.32 -56.19c14.33,-4.39 39.8,6.17 43.29,16.15 6.76,19.29 -11.49,27.43 -26.6,30.98 -9.49,2.23 -20.02,0.21 -28.2,-2.07 -9.89,-2.76 -22.17,-13.26 -17,-27.61 2.48,-6.9 10.33,-11.64 16.69,-14.34 7.54,-3.19 8.75,-2.17 11.82,-3.11zm-457.86 -191.44c10.69,-5.11 45.21,19.26 55.7,26.24 5.78,3.85 10.22,7.33 16.21,11.29 4.15,2.75 12.71,10.18 8.67,17.98l-32.07 23.34c-5.23,4.08 -10.21,7.71 -15.59,11.85 -12.25,9.41 -19.23,14.91 -32.71,22.82 -5.11,2.99 -14.88,9.54 -18.69,0.89 -2.41,-5.49 -2.89,-17.15 -2.94,-24.54 -0.09,-14.58 2.53,-43.82 5.11,-58.02 0.3,-1.66 1.29,-3.12 1.91,-4.66 3.22,-7.99 5.34,-22.87 14.4,-27.19zm-68.24 137.5c-3.23,4.85 0.7,67.77 1.14,71.4 0.77,6.34 1.72,12.97 -4.14,14.06 -7.09,1.33 -7.97,-4.97 -8.63,-10.4 -1.46,-12.05 -1.2,-23.16 -2.1,-35.32 -2.85,0.37 -6.29,6.75 -8.87,10.37 -9.32,13.11 -15.35,22.77 -23.54,36.92 -20.3,35.05 -36.46,75.44 -45.24,115.45 -4.5,20.53 -6.68,47.81 -6.04,69.74l0.76 5.28 0.29 -12.26c8.53,0.84 32.15,7.54 45.65,8.48 4.33,0.29 2.7,0.44 5.42,1.31l17.76 2.5c7.6,0.59 15.52,2.3 23.88,2.77 8,0.46 18.4,0.71 26.04,1.66 13.44,1.68 38.11,1.29 52.69,1.29 19.92,0.01 20.87,-0.13 39.27,-1.6 3.08,-0.24 9.31,-0.35 12.43,-0.89 6.78,-1.16 16.23,-1.7 23.18,-3.22 11.54,-2.52 22.69,-3.38 34.69,-5.97 14.69,-3.16 44.96,-8.32 56.23,-11.45l31.8 -8.23c20.93,-5.99 50.71,-15.41 69.82,-24.9 2.54,-1.26 7.1,-2.43 9.9,-3.45 19.06,-7.03 40.09,-6.34 59.82,-3.05 7.09,1.18 15.1,2.53 22.26,4.53 14.5,4.04 26.17,9.19 39.81,14.15l29.5 11.32c6.97,2.6 12.27,5.18 19.9,6.66 3.88,0.75 7.08,2.35 10.08,3.08l11.91 2.2c10.97,1.95 26.23,2.69 37.57,2.53 17.38,-0.25 9.51,-0.27 24.65,-1.91 4.98,-0.54 19.64,-2.08 22.84,-3.59 0.17,-0.1 0.44,-0.42 0.53,-0.26 0.09,0.16 0.4,-0.2 0.52,-0.25l9.59 -2.4c3.67,-0.72 7.91,-2.16 11.91,-2.42 0.37,-10.37 -1.57,-22.45 -3.27,-32.97 -4.25,-26.27 -3.23,-17.07 -9.77,-40.13 -1.02,-3.6 -2.11,-5.99 -2.73,-9.86 -2.13,-5.44 -3.25,-10.56 -5.65,-15.78 -2.09,-4.54 -3.75,-10.82 -5.99,-15.15 -2.64,-5.13 -11.54,-26.41 -14.47,-28.6 -1.21,1.4 1.08,1.61 -1.48,1.09 -6.75,-15.52 -38.97,-58.32 -51.48,-71.62l-30.18 -31.63c-27.07,-26.79 -59.84,-51.8 -93.39,-70.35 -2.43,-1.34 -5.08,-2.13 -7.15,-3.48 -11.13,-7.25 -24.21,-11.11 -34.4,-16.21 -14.5,-7.28 -36.94,-12.64 -53.73,-17.65 -2.68,-0.8 -5.66,-0.98 -8.33,-1.63l-26.3 -4.35c-3.21,-0.17 -6.46,-0.26 -9.63,-0.61 -24.5,-2.74 -68.46,0.82 -93.27,7.77 -12.12,3.4 -9.01,3.6 -14.8,0.32 2.31,4.4 7.34,6.43 1.67,13 -5.53,1.38 -7.07,0.66 -10.07,-2.36 -5.02,-5.06 -14.82,-15.98 -19.51,-19.53l-1.53 0.87c-0.09,-0.17 -0.43,0.09 -0.62,0.19 -3.13,-3.23 -10.66,-7.4 -15.02,-10.24 -21.52,-14.03 -61.36,-40.18 -86.09,-40.76 -10.42,-0.24 -13.22,2.22 -17.51,8.22 -3.74,5.24 -6.06,9.99 -8.81,16.54 -8.57,20.38 -16.85,56.55 -19.13,82.42 -0.59,6.73 -2.3,14.41 -3.26,21.61l-4.71 45.91c-0.3,3.87 -0.65,7.49 -0.95,11.64 -0.15,1.98 -0.23,3.94 -0.33,5.95l-0.45 3.93c-0.03,0.13 -0.15,0.61 -0.18,0.52 -0.02,-0.09 -0.11,0.34 -0.2,0.5 -2.21,-13.48 0.41,-28.67 -0.56,-41.7z"/>
   <path class="fil1" d="M685.37 1334.84c-5.64,13.18 -21.05,4.2 -17.51,-6.71 3.74,-11.53 22.77,-5.58 17.51,6.71zm38.2 -12.65c-2.23,-13.34 17.65,-15.05 18.6,-2.81 1.02,13.05 -16.63,14.52 -18.6,2.81zm74.83 -8.81c-5.17,10.74 -23.31,4.91 -17.39,-8.31 5.11,-11.42 22.91,-3.14 17.39,8.31zm39.07 -12.28c-3.21,-13.77 15,-17.63 18.61,-5.94 4.05,13.17 -15.81,17.99 -18.61,5.94zm276.28 -267.79c-3.22,2.62 -6.81,0.88 -8.44,1.38 -3.62,1.11 -12.59,0.86 -21.26,2.05 -7.61,1.05 -15.16,1.26 -21.61,2.03 -7.44,0.88 -26.48,8.02 -35,10.86l-88.19 29.27c-16.67,6.37 -32.32,10.89 -51.12,18.28 -14.89,5.86 -20.08,8.73 -33.04,14.3 -9.03,3.88 -17.31,10.37 -21.94,12.9 -27.24,14.88 -47.21,40.87 -59.82,68.99 -2.27,5.08 -4.81,10.61 -7.15,15.86 -4.67,10.46 -8.65,22.43 -13.16,33.52 -2.22,5.46 -5.36,10.73 -7.88,15.84 -2.92,5.92 -5.44,9.34 -8.58,14.53 -16.5,27.23 -39.62,45.82 -73.37,42.62 -4.49,-0.43 -5.37,-1.45 -9.02,-2.57 -4.2,-1.3 -6.61,-0.69 -8.65,-3.46 -3.56,-0.91 -10.75,-1.99 -14.92,-3.41 -4.66,-1.59 -9.96,-2.87 -14.65,-4.3 -15.46,-4.69 -13.08,-3.86 -27.1,-10.08 -9.2,-4.09 -16.48,-8.58 -22.98,-15.08 -9.84,-9.85 -9.4,-13.57 -13.69,-23.53 -3,0.64 -28.04,19.27 -32.47,23.04 -3.34,2.85 -6.85,5.4 -10.39,7.95 -27.06,19.53 -19.91,27.31 -16.96,51.2 1.31,10.64 4,21.49 5.56,31.85 2.5,16.63 5.84,31.13 8.36,46.41 0.87,5.33 2.16,10.01 2.89,15.23l5.55 30.27c22.16,6.04 43.98,9.76 66.51,14.35 7.62,1.56 15.43,2.84 23,4.31 8.03,1.56 59.77,9.72 69.52,10.5 7.7,0.62 17.59,1.55 24.69,2.93 6.94,1.35 16.66,1.76 24.54,2.31 7.79,0.55 16.18,1.67 24.04,2.42 8.21,0.78 17.89,1.11 25.87,1.39 8.57,0.31 16.97,1.2 25.98,1.45 27.57,0.76 80.15,3.05 105.61,0.91 8.1,-0.68 17.81,-0.69 25.82,-0.89 38.81,-0.98 142.19,-12.64 179.39,-22.68 17.21,-4.65 36.4,-7.59 53.21,-13.41l42.24 -12.19c10.22,-3.17 53.56,-19.13 58.96,-22.33 -0.21,-3.67 -0.82,-1.28 -0.95,-5.12 0.03,-1.97 -12.54,-30.41 -14.72,-36.07 -5.74,-14.9 -12.11,-32.88 -16.66,-48.01 -1.01,-3.37 -2.28,-6.6 -3.08,-9.41 -1.99,-6.96 -3.16,-13.3 -5.27,-20.29l-9.95 -41.21c-1.59,-1.76 -15.66,1.75 -17.29,2.12l-53.07 10.27c-0.99,9.25 0.37,19.01 -0.86,28.75 -1.1,8.66 -2.88,15.96 -5.63,23.65 -7.85,21.95 -13.29,30.96 -27.51,46.39 -7.09,7.7 -15.08,14.31 -24.14,20.12 -16.89,10.83 -24.64,12.03 -42.44,16.72 -32.09,8.44 -73.63,-4.2 -93.91,-19.59 -17.39,-13.2 -31.54,-28.18 -40.66,-47.93 -1.61,-3.47 -2.93,-7.13 -4.27,-10.59 -0.76,-1.96 -2.77,-8.7 -3.61,-10.19 -5.37,-0.52 -11.37,1.49 -16.14,2.59 -4.84,1.12 -11.08,2.21 -16.12,2.98 -10.63,1.63 -21.14,4.58 -31.66,6.2 -10.88,1.68 -21.45,3.93 -32.03,6.04l-31.77 6.16c-10.61,2.45 -21.2,3.54 -31.97,6.06 -10.09,2.37 -21.61,4.33 -32.01,6.06 -21.44,3.55 -41.86,8.62 -63.6,12.14 -0.96,3.89 -1.02,7.31 -2.91,10.48 -5.35,8.93 -9.34,13.94 -19.57,20.43 -24.27,15.42 -59.19,21.19 -88.24,15.31 -11.42,-2.31 -26.73,-11.2 -28.49,-24.3 -3.62,-26.95 35.8,-45.15 56.36,-49.76 25.04,-5.6 65.88,-8.24 80.89,18.06l95.62 -18.15c12.75,-1.66 49.62,-9.38 63.38,-12.41 23.28,-5.13 56.74,-9.52 79.68,-15.28 16.58,-4.16 17.92,2.3 14.8,-16.3 -0.69,-4.11 -0.49,-10.69 -0.17,-14.98 0.63,-8.38 2.17,-18.51 4.4,-26.41 6.52,-23.02 18.58,-41.6 34.83,-57.21 29.79,-28.61 75.02,-40.64 116.16,-29.9 16.63,4.35 28.79,11.33 41.41,19.69 6.08,4.03 11.79,9.92 16.47,14.42 24.09,23.16 29.94,57.47 31.76,60.19 2.4,0.05 68.68,-12.74 70.08,-13.41l-3.92 -25.86c-0.5,-5.06 -1.05,-8.94 -1.78,-13.82 -6.94,-46.44 -6.75,-95.04 -4.11,-142.17 0.26,-4.52 1.18,-7.97 1.33,-13.44 0.17,-5.67 1.71,-5.59 2.1,-11.89 0.31,-4.77 1.46,-8.97 1.07,-14.11 -28.14,-2.21 -41.41,-2.96 -69.69,-2.7 -7.83,0.08 -14.98,0.78 -22.49,0.66z"/>
   <path class="fil1" d="M572.86 548.28c-1.57,-10.22 2.59,-26.28 7.43,-34.54 2.42,-4.15 3.38,-6.94 7.64,-10.44l1.54 -1.35c9.32,-8.71 20.74,-14.63 34.36,-15.34 8.44,-0.44 18.18,0.59 23.95,4 7.02,4.15 8.9,3.12 17.38,10.73 23.36,20.96 26.46,55.5 6.68,80.17 -7.94,9.89 -23.74,18.64 -38.13,19.14 -34.07,1.17 -56.33,-22.97 -60.85,-52.37zm358.96 -60.92l-0.83 1.71c-1.05,3.17 2.7,11.34 4.17,14.31 5.44,10.92 17.84,22.8 30.49,24.47 4.69,0.61 6,-1.74 10.3,-1.02 4.39,-0.04 16.81,-6.29 19.82,-9.36 14.3,-14.56 -7.76,-34.15 -20.02,-45.56 -3.58,-3.33 -6.83,-3.52 -5.89,-9.22 8.4,-2.15 28.18,15.19 33.45,21.67 2.31,2.84 5.55,7.46 7.48,11.51 7.48,15.7 0.53,28.02 -12.74,36.54 -4.34,2.79 -8.79,4.29 -12.27,6.56 -1.23,32.64 -7.28,54.94 -29.4,72.62 -21.49,17.18 -56.6,19.81 -82.25,10.28 -18.86,-7.01 -31.17,-25.77 -37.31,-44.7 -3.68,-11.34 -3.25,-24.46 -3.87,-37.77 -4.27,-3.35 -11.1,-5.21 -18.41,-13.11 -12.22,-13.21 -6.14,-34.22 5.23,-44.98 3.5,-3.31 14.44,-16.17 18.31,-12.3 1.45,1.8 1.15,1.88 0.01,3.83 -0.11,0.18 -2.25,2.82 -2.55,3.17 -5.84,6.75 -10.16,12.71 -13.6,21.65 -7.21,18.69 11.04,27.59 16.29,27.75 3.76,-0.63 8.88,1 12.15,1.49 4.3,0.64 9.47,0.68 13.85,0.72 20.51,0.21 37.19,-4.88 44.84,-24.5 1.15,-2.98 2.86,-7.3 2.98,-10.75 -1.69,-0.12 -3.3,-0.14 -4.97,-0.24 -3.63,-0.23 -3.78,-0.43 -4.89,-1.73 -14.48,-0.59 -36.43,-13.85 -37.48,-34.19 -0.6,-11.68 5.02,-18.82 12.75,-24.01 18.62,-12.51 75.46,-14.43 81.74,11.41 3.04,12.48 -0.38,21.44 -6.25,28.9 -6.69,8.5 -11.43,9.61 -21.13,14.85zm-507.81 -11.81l-0.1 1.73 1.61 3.49c0.2,0.92 0.13,2.67 0.21,3.75 1.41,19.08 5.2,25.14 12.6,41.86 12.56,28.4 32.96,52.37 53.98,72.6 7.82,7.53 27.51,21.45 36.4,26.83 20.71,12.55 44.31,21.3 67.71,27.19 2.12,0.53 4.43,0.69 6.76,1.25 2.32,0.56 2.6,1.31 5.25,1.98l40.72 7.69c7.52,1.03 16.85,3.39 26.77,4.62 2.17,0.26 5.4,0.19 7.28,0.6 1.68,0.37 2.91,1.3 5.44,1.72l43.44 4.15c20.87,0.81 40.75,1 61.87,1.01 22.14,0.01 39.62,-1.68 60.43,-2.95 18.27,-1.11 32.58,-4.35 49.25,-5.65 2.86,-0.22 4.1,-0.91 6.95,-1.27 14.73,-1.84 25.75,-4.82 39.56,-7.19 4.85,-0.83 8.76,-2.02 13.31,-2.74 8.55,-1.34 43.42,-9.45 51.5,-12.07 23.99,-7.77 23.27,-8.1 44.84,-18.39 11.71,-5.6 27.56,-17.22 37.88,-25.45 10.28,-8.2 23.25,-21.22 31.25,-31.84 -0.11,-3.66 -8.82,-9.59 -11.46,-28.72 -1.78,-12.82 0.55,-25.79 5.65,-34.82 2.86,-5.05 4.69,-8.34 8.17,-12.24 8.93,-10.02 19.35,-15.76 32.72,-18.07 11.77,-2.03 10.5,1.75 9.72,-20.93 -6.32,-0.26 -14.86,3.33 -22.32,3.82 -3.2,1.51 -17.86,3.05 -22.84,3.59 -15.14,1.64 -7.27,1.66 -24.65,1.91 -11.34,0.16 -26.6,-0.58 -37.57,-2.53l-11.91 -2.2c-3,-0.73 -6.2,-2.33 -10.08,-3.08 -7.63,-1.48 -12.93,-4.06 -19.9,-6.66l-29.5 -11.32c-13.64,-4.96 -25.31,-10.11 -39.81,-14.15 -7.16,-2 -15.17,-3.35 -22.26,-4.53 -19.73,-3.29 -40.76,-3.98 -59.82,3.05 -2.8,1.02 -7.36,2.19 -9.9,3.45 -19.11,9.49 -48.89,18.91 -69.82,24.9l-31.8 8.23c-11.27,3.13 -41.54,8.29 -56.23,11.45 -12,2.59 -23.15,3.45 -34.69,5.97 -6.95,1.52 -16.4,2.06 -23.18,3.22 -3.12,0.54 -9.35,0.65 -12.43,0.89 -18.4,1.47 -19.35,1.61 -39.27,1.6 -14.58,0 -39.25,0.39 -52.69,-1.29 -7.64,-0.95 -18.04,-1.2 -26.04,-1.66 -8.36,-0.47 -16.28,-2.18 -23.88,-2.77l-17.76 -2.5c-2.72,-0.87 -1.09,-1.02 -5.42,-1.31 -13.5,-0.94 -37.12,-7.64 -45.65,-8.48l-0.29 12.26z"/>
   <path class="fil2" d="M1494.12 1172.46c7.31,-4.02 14.68,1.99 16.85,6.22 3.7,7.21 -1.6,14.45 -6.52,16.34 -15.82,6.08 -25.34,-14.28 -10.33,-22.56zm-139.1 -71.69c15.8,-2.74 37.2,1.56 49.13,6.2 16,6.21 25.19,10.79 36.45,20.49 7.46,6.43 21.99,22.1 16.22,39.29 -4.41,13.13 -19.6,19.2 -35.49,21.15 -56.97,7 -114.08,-37.81 -101.91,-66.45 2.47,-5.81 7.77,-11.31 13.45,-14.42 8.52,-4.66 13.84,-4.81 22.15,-6.26zm-85.29 309.7c3.07,3.59 3.44,8.95 7.1,12.7l29.25 -13.45c3.38,-1.75 5.88,-3.4 9,-4.85 7.15,-3.31 11.82,-5.87 18.59,-9.63 5.98,-3.33 12.36,-6.6 18,-10.14 5.46,-3.42 12.27,-7.06 17.62,-10.48 28.63,-18.26 39.78,-26.29 66.03,-46.43 5.2,-3.99 10.27,-8.34 15.47,-12.67l29.49 -26.74c2.47,-2.6 4.72,-4.57 7.2,-6.84 8.11,-7.43 27.37,-27.68 34.15,-36.14 2.67,-3.33 10.2,-12.9 13.13,-14.91 -0.53,3.9 -18.91,31.26 -22.44,36.49 -15.25,22.57 -32.9,45.43 -51.25,65.43l-28.75 29.6c-5.52,5.56 -10.44,9.46 -15.45,14.09 -17.97,16.61 -31.01,25.22 -48.54,39.32 -11.71,9.41 -59.1,38.7 -72.24,44.13l-0.42 2.33 4.05 7.81c7.68,0.03 44.61,-24.95 51.52,-29.21l23.38 -16.65c3.86,-3.04 7.6,-5.59 11.65,-8.75 17.51,-13.63 37.25,-31.06 53,-46.81l19.68 -20.4c2.09,-2.05 2.69,-3.47 4.42,-5.42 9.19,-10.29 23.9,-26.7 31.54,-38.03l16.69 -23.39c13.07,-17.35 27.22,-43.37 37.74,-62.84l6.87 -12.68c4.16,-8.99 0.91,-15.57 -5.75,-21.06 -1.94,-1.61 -3.35,-3.2 -5.1,-4.71 -7.06,-6.06 -14.26,-11.45 -22.11,-17.95 -4.25,-3.52 -19.08,-15.31 -22.79,-16.79l1.52 2.63c-3.3,-0.96 -12.2,-7.14 -15.72,-9.31l-30.22 -17.56c-24.16,-14.68 -87.77,-42.1 -116.95,-50.18 -40.31,-11.16 -78.02,-21.22 -122.97,-20.91l1.38 -12.95c13.57,0.88 47.49,7.73 51.63,7.71 -0.84,-0.77 -0.07,-0.34 -1.33,-0.94 -0.76,-0.36 -48.69,-9.12 -50.69,-7.09 -2.98,6.49 -4.26,40.07 -5.29,50.4 -1.62,16.13 -1.57,36.34 -1.25,53.63l1.73 40.03c1.08,15 8.36,72.3 11.89,83.42l13.06 55.98c5.93,21.3 12.58,41.42 20.59,61.65l8.32 18.84c0.65,1.7 1.08,3.63 1.76,5.42 0.65,1.7 1.23,2.43 1.81,4.3z"/>
   <path class="fil3" d="M514.72 1459.26c0.28,5.34 1.42,8.97 2.12,13.47 0.62,3.93 0.24,9.35 3.27,11.36l-0.03 -2.92c2.71,1.66 4.75,3.77 8.07,5.53l77.69 21.55c15.84,4.1 30.4,6.38 46.27,10.11l120.76 19.91c8.25,0.96 17.55,1.73 25.95,2.84 18.27,2.41 92.25,4.78 109.69,4.8 36.71,0.03 73.67,-0.99 107.97,-5.2 17.28,-2.12 33.68,-4.13 50.78,-6.38 3.59,-0.48 7.8,-1.63 11.55,-2.18 23.35,-3.42 83.38,-17.09 102.61,-24.72l21.88 -7c14.42,-5.06 27.66,-10.03 41.43,-15.7 13.67,-5.61 25.38,-12.09 39.11,-17.85l3.37 2.85c-0.79,-2.61 -4.98,-9.39 -6.3,-11.7l-11.88 -23.22c-2.44,-5.14 -3.55,-10.12 -5.88,-11.6 0.13,3.84 0.74,1.45 0.95,5.12 -5.4,3.2 -48.74,19.16 -58.96,22.33l-42.24 12.19c-16.81,5.82 -36,8.76 -53.21,13.41 -37.2,10.04 -140.58,21.7 -179.39,22.68 -8.01,0.2 -17.72,0.21 -25.82,0.89 -25.46,2.14 -78.04,-0.15 -105.61,-0.91 -9.01,-0.25 -17.41,-1.14 -25.98,-1.45 -7.98,-0.28 -17.66,-0.61 -25.87,-1.39 -7.86,-0.75 -16.25,-1.87 -24.04,-2.42 -7.88,-0.55 -17.6,-0.96 -24.54,-2.31 -7.1,-1.38 -16.99,-2.31 -24.69,-2.93 -9.75,-0.78 -61.49,-8.94 -69.52,-10.5 -7.57,-1.47 -15.38,-2.75 -23,-4.31 -22.53,-4.59 -44.35,-8.31 -66.51,-14.35z"/>
   <path class="fil0" d="M609.54 1151.48c9.97,-4.23 25.45,-2.33 32.55,4.17 2.79,2.55 7.38,8.02 11.08,9.24 8.13,2.67 26.01,-8.72 39.98,8.55 2.72,3.36 6.77,13.43 19.27,7.49 4.17,-1.99 14.28,-3.1 18.85,-0.85l3.63 0.83 -1.9 -2.12c0.24,-3.21 7.8,-20.41 9.36,-24.72 2.97,-8.17 5.86,-16.59 9.2,-24.63 10.74,-25.82 20.33,-42.9 44.66,-58.03 3.96,-2.46 7.46,-3.26 11.51,-5.42 8.6,-4.56 18.65,-3.64 21.86,-12.61 1.6,-4.45 0.59,-11.32 -2.05,-14.34 -3.08,-3.52 -13.96,-12.57 -18.14,-15.52 0.13,-0.14 0.31,-0.32 0.39,-0.4l0.98 -1.09c0.04,-0.18 0.18,-0.22 0.27,-0.33 0.54,-1.45 0.07,-0.39 -0.56,-0.65l-3.65 0.38c-2.03,1.13 -25.4,2.14 -30.46,2.22 -30.85,0.49 -31.51,1.59 -59.28,-6.93 -8,-2.46 -15.19,-6.8 -20.85,-11.08 -9.87,-2.87 -18.09,-20.44 -18.81,-21.17 -1.2,-1.23 0.39,0.06 -1.56,-1.22 0.95,2.88 1.29,2.67 1.82,5.4 -12.6,-0.6 -40.81,-10.68 -51.33,-16.92 -3.26,-1.94 -11.07,-7.15 -14.81,-7.47 -6.71,15.49 -11.23,72.18 -1.75,89.21 2.38,-1.95 0.76,-3.16 1.88,-6.46 0.7,-2.08 3.29,-3.61 5.53,-2.3 3.16,1.86 1.18,12.55 0.87,15.57 -1.1,10.65 -1.53,20.25 -2.42,30.67 -1.75,20.32 -3.51,41.59 -6.12,60.53z"/>
   <path class="fil0" d="M631.2 723.14c-3.79,2.51 -17.52,28.17 -21.03,34.9 -12.88,24.68 -21.7,59.2 -25.25,87.76 -1.74,13.99 -2.43,31.85 1.28,45.91 0.79,2.98 0.05,5.01 2.21,5.73 0.12,-2.07 -1.98,-8.85 -2.44,-11.98 -1.09,-7.44 -1.71,-34.86 0.63,-39.76 1.95,3.23 3.95,15.33 8.78,23.45 1.88,3.16 3.86,7.04 5.74,10.37 7.23,12.76 19.26,25.36 30.52,34.22 2.55,2 6.48,5.1 9.44,6.74 4.22,2.32 6.22,3.75 10.23,5.98 20.15,11.2 37.97,16.02 61.15,19.53 4.44,0.67 27.05,3.09 29.81,0.52 1.47,-1.44 7.01,-17.4 -6.9,-26.17 -20,-12.61 -19.69,-34.12 -3.34,-48.05 13.56,-11.55 7.18,-15.08 9.61,-24.58 0.35,-1.34 -1.13,0.57 1.14,-2.67 -0.33,-12.01 5.35,-18.36 5.42,-18.73 0.06,-0.27 0.23,-0.31 0.35,-0.47 -22.32,1.1 -53.06,14.29 -38.16,-9.64 4.74,-7.61 17.18,-34.74 18.18,-45.03 0.69,-5.27 1.08,-3.83 -1.97,-7.22 -1.84,-2.04 -2.62,-2.75 -4.69,-4.48 -3.47,-2.89 -5.98,-6.15 -9.44,-8.74 -6.31,-4.74 -15.04,-9.67 -22.99,-13.61 -12.68,-6.28 -41.85,-15.35 -58.28,-13.98z"/>
   <path class="fil0" d="M385.93 905.2c3.72,-4.01 2.87,-10.83 7.61,-12.81 11.17,71.59 56.88,127.83 121.86,150.26 20.92,7.22 51.63,12.07 74.4,9.92 0.02,0 2.43,-0.28 2.48,-0.28 1.35,-0.26 -0.04,0.09 1.27,-0.27 1.37,-0.38 1.04,-0.23 1.79,-0.7l-2.07 -10.94 -0.51 0.94c-0.71,-4.57 -2.36,-28.7 -2.88,-29.82 -8.64,-0.52 -23.21,7.34 -54.75,-4.77 -6.86,-2.63 -14.54,-7.89 -19.33,-12.3 -27.2,-25.02 -2.36,-19 0.08,-19.49 18.67,-3.72 26.8,-15.37 32.55,-31.6 2.52,-7.1 1.34,-26.97 -0.39,-35.56l-5.51 -19.3c-1.08,-3.52 -1.71,-7.11 -2.61,-10.43 -1.26,-4.67 -11.23,-27.17 -14.04,-30.75 -1.82,-2.3 -1.9,-0.82 -3.24,-3.61 -4.8,-3.69 -13.18,-5.12 -18.97,-7.25 -14.63,-5.38 -34.24,-2.89 -48.17,0.82 -19.46,5.18 -36.42,18.21 -49.3,33.19 -6.85,7.97 -17.28,23.1 -20.27,34.75z"/>
   <path class="fil4" d="M1139.4 582.52l0.72 -3.68c-5.8,-3.25 -7.25,-7.29 -11.2,-10.37 -8,10.62 -20.97,23.64 -31.25,31.84 -10.32,8.23 -26.17,19.85 -37.88,25.45 -21.57,10.29 -20.85,10.62 -44.84,18.39 -8.08,2.62 -42.95,10.73 -51.5,12.07 -4.55,0.72 -8.46,1.91 -13.31,2.74 -13.81,2.37 -24.83,5.35 -39.56,7.19 -2.85,0.36 -4.09,1.05 -6.95,1.27 -16.67,1.3 -30.98,4.54 -49.25,5.65 -20.81,1.27 -38.29,2.96 -60.43,2.95 -21.12,-0.01 -41,-0.2 -61.87,-1.01l-43.44 -4.15c-2.53,-0.42 -3.76,-1.35 -5.44,-1.72 -1.88,-0.41 -5.11,-0.34 -7.28,-0.6 -9.92,-1.23 -19.25,-3.59 -26.77,-4.62l-40.72 -7.69c-2.65,-0.67 -2.93,-1.42 -5.25,-1.98 -2.33,-0.56 -4.64,-0.72 -6.76,-1.25 -23.4,-5.89 -47,-14.64 -67.71,-27.19 -8.89,-5.38 -28.58,-19.3 -36.4,-26.83 -21.02,-20.23 -41.42,-44.2 -53.98,-72.6 -7.4,-16.72 -11.19,-22.78 -12.6,-41.86 -0.08,-1.08 -0.01,-2.83 -0.21,-3.75l-1.61 -3.49c-0.29,31.67 15.2,75.69 31.64,102.22 14.31,23.09 40.83,54.82 64.43,69.17 15.15,9.21 14.15,10.08 31.79,18.24l11.55 5.27c28.07,11.45 48.77,14.97 78.46,21.27 23.21,4.93 65.12,10.82 88.91,11.74 11.1,0.43 20.55,1.33 31.63,1.43 55.22,0.53 103.17,-1.78 157.17,-10.43 4.64,-0.75 9.05,-1.16 13.68,-2.32 4.67,-1.18 9.88,-1.27 14.71,-2.41 8.85,-2.11 18.57,-4.15 27.76,-5.84 32.87,-6.03 69.88,-18.02 97.21,-36.26 14.68,-9.79 25.46,-18.49 36.95,-29.83 6.28,-6.21 27.18,-29.59 29.6,-37.01z"/>
   <path class="fil5" d="M816.05 817.49c0.63,0.55 0.5,0.49 1.43,1.1 2.75,1.81 7.77,3.21 11.77,5.81 3.28,2.13 8.76,7.02 12.7,7.48 0.53,-13.45 2.58,-28.54 6.4,-39.51 8.6,-24.68 17.19,-21.8 39.57,-5.6 23.39,16.93 7.54,10.22 31.1,6.56 23.11,-3.59 27.1,-3.11 49.48,2.51 11.57,2.91 5.13,5.03 19.69,-6.2 6.09,-4.7 10.87,-8.4 18.41,-12.56 8.06,-4.46 15.12,-7.56 20.83,2.43 8.83,15.42 12.7,44.19 12.89,64.02 0.06,5.84 2.43,7.38 4.78,10.96 17.36,26.28 26.72,64.82 8.77,94.97 -12.37,20.79 -30.22,32.75 -55.4,37.6 -30.64,5.9 -67.11,9.72 -98.85,3.85 -9.12,-1.69 -22.19,-3.95 -30.41,-6.94 -11.94,-4.34 -25.16,-13.45 -32.99,-23.16 -2.79,-3.46 -5.43,-8.46 -7.83,-11.1 -2.53,0.17 -7.16,2.78 -9.17,4.15 -0.27,6.5 15.36,23.44 20.14,28.41 11.48,11.95 26.79,23.23 42.46,30.55 2.76,1.28 5.92,1.98 8.67,3.37 3.06,1.55 5.38,2.44 8.95,3.52 26.82,8.16 60.71,8.85 87.62,-1.29 13.36,-5.04 22.92,-8.96 35.29,-17.5 20.28,-14 38.91,-35.1 48.64,-57.62 0.86,-2.01 1.6,-4.15 2.5,-5.92 8.65,-16.99 11.15,-37.03 11.15,-56.63 0.01,-21.1 -5.49,-40.15 -12.93,-56.36 -3.58,-7.8 -8.01,-15.85 -12.73,-22.41 -2.41,-3.35 -4.7,-6.68 -7.6,-9.97l-8.45 -9.16c-39.5,-39.3 -93.52,-51.88 -146.73,-35.09 -4.97,1.57 -11.82,5.04 -16.94,7.36 -17.2,7.8 -30.34,19.32 -43,32.27 -4.38,4.49 -19.25,23.36 -20.21,30.1z"/>
   <path class="fil6" d="M1015.92 1272.28c-4.52,-14.79 11.7,-29.96 34.92,-26.47 16.2,2.44 32.15,14 34.29,28.12 4.96,32.74 -57.24,37.48 -69.21,-1.65zm-22.17 -35.83c12.24,-4.02 15.28,15.6 3.97,17.63 -11,1.97 -16.27,-13.59 -3.97,-17.63zm-55.02 30.36c-0.25,3.26 -1.15,3.48 -1.42,6.9 -4.65,57.82 61.62,117.69 134.14,80.61 3.73,-1.91 7.56,-4.74 10.49,-7.01 1.63,-1.27 3.15,-2.35 4.69,-3.78 0.8,-0.74 1.22,-1.31 2.03,-2.17 1.89,-2.01 0.72,-1.23 3.18,-2.3 4.69,-4.99 11.12,-23.67 11.99,-33.02 1.36,-14.68 -0.12,-29.7 -4.43,-41.38 -21.25,-57.64 -99.57,-75.58 -144.28,-25.92 -4.08,4.54 -16.2,21.28 -16.39,28.07z"/>
   <path class="fil5" d="M1017.03 880.05c0.38,3.71 -0.66,3.14 -4.38,3.87l-20.27 4.85c-16.86,4.1 -15.17,6.57 -22.63,10.43 -5.39,2.78 -10.12,-1.77 -6.94,-7.02 5.16,-8.49 22.25,-14.05 34.97,-14.06 5.2,0 15.03,0.04 19.25,1.93zm-132.27 -27.4c15.29,-6.05 29.98,8.24 13.86,13.28 -13.99,4.38 -29.95,-6.91 -13.86,-13.28zm105.99 -2.05c19.26,0.12 16.14,15.95 -1.42,15.51 -17.46,-0.43 -17.19,-15.64 0.72,-15.52l0.7 0.01zm-131.35 -57.07c0.11,-0.1 0.25,-0.27 0.3,-0.34l0.58 -0.73c0.07,-0.11 0.19,-0.29 0.26,-0.41l2.24 -4.09c5.25,-0.57 10.81,3.41 14.52,5.93 17.38,11.8 11.6,10.7 -2.93,21.1l-11.22 7.68c-0.97,0.38 -2.07,0.72 -3.12,0.66 -9.57,-0.62 -0.4,-21.08 -0.63,-29.8zm164.85 27.92c-4.69,2.19 -10.45,-2.94 -15.99,-6.71 -13.78,-9.37 -18.8,-9.96 -11.79,-16.09 4.7,-4.12 15.2,-12.73 21.68,-12.02 4.11,6.34 9.54,26.49 6.1,34.82zm-164.85 -27.92c-0.97,0.68 -0.59,0.04 -1.45,1.56 -1.35,2.4 -3.56,16.61 -3.82,18.93 -0.88,7.69 -2.78,14.61 -2.35,23.02 10.63,0.42 5.4,2.6 4.16,8.12 -0.98,4.39 8.46,11.41 12.17,27.32 0.33,1.41 0.33,1.88 0.78,3.31l1.67 3.44c11.4,-0.13 22.93,-0.87 32.3,2.4 24.1,8.42 19.81,19.91 12.85,19.18 -3.75,-0.4 -4.78,-4.82 -17.47,-8.98l-20.86 -5.15c-1.06,-0.23 -2.96,-0.67 -3.57,-0.76 -0.57,-0.08 -1.24,-0.19 -1.81,-0.13l-1.61 0.47c-1.73,0.61 -1.51,9.87 -2.41,13.76 -1.09,4.72 -3.2,8.16 -4.17,12.44 2.63,-1.53 0.61,-3.43 8.42,-1.81 12.2,2.53 18.05,1.84 29.98,-0.5 8.65,-1.7 25.8,-11.19 34.42,-9.05 -1.19,-1.5 -7.14,-0.36 -8.24,3.36 4.34,-1.21 6.45,-2.71 11.73,-2.92 4.87,-0.19 9.17,0.91 13.43,2.12l-2.18 -2.54c11.39,0.07 27.77,12.56 51.16,10.07 16.83,-1.79 37.48,-13.45 48.33,-14.67 0.47,3.68 -0.24,3.29 1.9,5.05 -0.94,-12.56 -7.44,-26.14 -12.41,-35.98 -2.63,-5.22 -6.24,-10.34 -9.29,-14.62 -3.1,-4.36 -8.66,-9.26 -7.37,-16.66 5.08,-0.31 2.82,0.8 6.21,1.25 1.14,-15.28 -4.52,-40.07 -11.65,-52.55 -7.55,0.37 -19.53,11.38 -26.1,16.15 -2.67,1.94 -2.24,1.55 -3.33,3.57 1.08,2.54 2.08,2.41 3.05,3.81 1.33,1.93 0.63,2.46 -0.17,4.14 -10.63,1.07 -25.09,-9.9 -50.86,-9.53 -9.6,0.14 -19.35,1.55 -27.49,3.72 -7.24,1.94 -17.01,7.36 -24.61,6.4 -1.59,-11.96 14.4,-1.72 -9.89,-18.9 -3.21,-2.28 -11.28,-7.89 -16.2,-8.03 -1.66,2.49 -3.76,6.11 -3.25,9.19z"/>
   <path class="fil7" d="M443.38 1486.39l-10.33 -62.29c-2.31,-16.44 -8.21,-42.34 -10.93,-60.27 -2.63,-4.31 -3.26,-20.95 -5.44,-26.67 -3.75,0.34 -6.79,3 -9.71,4.98l-9.64 5.09c-5.85,3.45 -12.99,7.42 -18.84,11.42 -6.06,4.15 -11.57,7.03 -17.98,11.54l-87.25 62.46c-2.97,2.24 -6.11,3.2 -6.61,8.28 -1.41,14.25 11.95,13.03 27.3,17.88 7.62,2.41 15.07,4.37 23.09,6.34 26.64,6.52 44.75,11.97 72.88,17.07 20.68,3.76 31.49,6.63 53.18,7.06l0.28 -2.89z"/>
   <path class="fil8" d="M791.91 812.54c3.96,0.67 8.02,1.81 12.73,1.55 4.38,-7.66 7.62,-13.84 12.18,-20.13 13.11,-18.11 31.8,-34.95 51.74,-45.9 39.65,-21.76 92.34,-24.32 133.98,-6.18 6.6,2.88 14.75,7.41 21.35,11.54 75.64,47.4 95.23,152.54 39.6,223.26 -9.47,12.04 -20.73,23.89 -33.33,32.1 -13.59,8.85 -8.52,5.2 -20.44,11.9 -39.17,22.03 -96.28,19.93 -133.98,1.15 -26,-12.95 -45.29,-29.32 -61.26,-52.66 -2.27,-3.31 -4.19,-7.5 -6.48,-10.26 -0.91,-0.02 -22.13,5.57 -23.82,6.25 0.22,5.05 12.59,21.92 16.45,26.97 19.78,25.88 44.02,43.34 74.92,56.53 11.47,4.89 20.88,6.51 34.06,9.63 5.1,1.2 13.46,-1.8 17.63,-3.38l70.09 -17.01c6.46,-1.15 13.48,-1.75 18.87,-3.58 2.25,-1.98 2.79,-1.25 5.15,-2.21l18.56 -12.84c12.6,-8.72 23.16,-20.21 32.43,-31.61 15.68,-19.3 17.92,-29 27.7,-49.59 2.36,-4.99 4.39,-13.74 5.66,-19.54 6.39,-29.01 7.44,-60.69 -2.3,-89.95 -2.21,-6.64 -3.91,-13.27 -6.76,-19.3 -8.37,-17.68 -6.26,-15.62 -18.17,-33.14 -2.65,-3.9 -9.36,-11.18 -10.8,-15.34 1.06,-0.24 1.65,-0.2 2.7,-0.65l-6.41 -6.23c-2.07,-0.42 -5.94,-3.97 -7.8,-5.37l-8.1 -4.66c-3.32,-2.12 -4.21,-3.61 -7.91,-5.44l-16.94 -8.99c-1.61,-0.79 -2.87,-1.05 -4.72,-1.76 -3.95,-1.5 -6.69,-3.45 -13.55,-5.34 -10.42,-2.86 -20.53,-5.41 -31.31,-7.25 -19.12,-3.25 -52.09,-0.43 -69.83,4.79 -29.2,8.58 -43.47,15.43 -67.73,35 -4.89,3.94 -9.42,8.32 -13.65,12.36 -8.1,7.76 -31.2,39.15 -30.51,45.28z"/>
   <path class="fil9" d="M609.54 1151.48l-6.34 53.32c5.58,4.07 18.52,2.26 17.94,11.4 -12.84,5.29 -31.5,-2.72 -47.13,7 -12.67,7.87 -11.27,25.62 -3.55,37.12 6.59,9.81 18.55,17.07 31.53,21.83 6.82,2.5 34.65,12.5 41.25,11.68 5.69,-0.36 5.49,0.27 9.85,-2.18 28.42,-15.93 46.48,-49.89 62.34,-76.78 2.73,-4.62 15.46,-31.84 15.84,-34.79 -4.57,-2.25 -14.68,-1.14 -18.85,0.85 -12.5,5.94 -16.55,-4.13 -19.27,-7.49 -13.97,-17.27 -31.85,-5.88 -39.98,-8.55 -3.7,-1.22 -8.29,-6.69 -11.08,-9.24 -7.1,-6.5 -22.58,-8.4 -32.55,-4.17z"/>
   <path class="fil9" d="M748.55 825.84c-0.12,0.16 -0.29,0.2 -0.35,0.47 -0.07,0.37 -5.75,6.72 -5.42,18.73 0.17,6.28 0.08,13.05 -1.51,18.24 -2.89,9.4 -25.12,16.95 -18.01,40.11 3.43,11.2 13.47,15.24 18.65,20.33 7.29,7.16 3.33,18.11 3.03,23.06 -0.21,3.32 -0.09,6.95 -0.06,10.29l14.16 -0.95c16.49,0 50.89,-11.13 64.27,-19.32 16.25,-9.96 33.41,-26.97 32.87,-51.83 -0.5,-22.95 -18.61,-40.67 -34.38,-49.58 -20.8,-11.74 -44.99,-11.43 -73.25,-9.55z"/>
   <path class="fil10" d="M883.81 591.74c-11.7,-3.67 -17.83,-28.08 -14.66,-43.01 5.21,-2.53 16.85,1.62 32.31,-5.4 8.43,-3.83 12.8,-8.69 17.9,-15.1l2.51 -2.8c3.02,1.59 7.77,12.24 19.46,16.57 3.46,1.27 7.21,1.47 10.21,2.57 0.71,2.62 1.31,6.77 1.44,10.01 0.3,7.34 -0.11,8.27 -0.86,10.12 -0.06,0.13 -0.16,0.36 -0.28,0.51 0.64,5.68 -4.09,15.2 -7.33,19.05 -8.87,10.53 -26.1,13.85 -40.22,13.42 -6.45,-0.2 -17.39,-1.95 -20.48,-5.94zm9.95 -111.64c-3.67,-0.18 -10.95,-5.31 -13.16,-7.26 -3.12,-2.75 -6.58,-8.04 -7.77,-12.59 -3.17,-12.03 5.26,-22.17 14.22,-24.22 0.84,-0.91 0.49,-0.79 1.95,-1.61 8.39,-4.71 64.47,-11.53 64.22,17.56 -0.15,18.38 -21.86,29.98 -38.44,31.32 -3.49,0.28 -8.32,0.19 -11.84,-0.03 -1.65,-0.11 -2.87,-0.37 -4.54,-0.77 -4.66,-1.1 -3.76,-1.3 -4.64,-2.4zm8.43 10.3l13.24 0.81c0.49,15.85 -6.77,34.39 -23,40.19 -12.81,4.58 -39.58,1.13 -51.43,-4.14l-2.77 -1.85c-5.25,-0.16 -23.5,-9.06 -16.29,-27.75 3.44,-8.94 7.76,-14.9 13.6,-21.65 0.3,-0.35 2.44,-2.99 2.55,-3.17 1.14,-1.95 1.44,-2.03 -0.01,-3.83 -3.87,-3.87 -14.81,8.99 -18.31,12.3 -11.37,10.76 -17.45,31.77 -5.23,44.98 7.31,7.9 14.14,9.76 18.41,13.11 0.62,13.31 0.19,26.43 3.87,37.77 6.14,18.93 18.45,37.69 37.31,44.7 25.65,9.53 60.76,6.9 82.25,-10.28 22.12,-17.68 28.17,-39.98 29.4,-72.62 3.48,-2.27 7.93,-3.77 12.27,-6.56 13.27,-8.52 20.22,-20.84 12.74,-36.54 -1.93,-4.05 -5.17,-8.67 -7.48,-11.51 -5.27,-6.48 -25.05,-23.82 -33.45,-21.67 -0.94,5.7 2.31,5.89 5.89,9.22 12.26,11.41 34.32,31 20.02,45.56 -3.01,3.07 -15.43,9.32 -19.82,9.36 -1.07,1.05 -0.59,1.07 -4.14,1.86 -11.02,2.44 -24.11,3.3 -32.57,-4.8 -7.46,-7.15 -12.36,-21.78 -10.23,-35.92l2.81 -0.61c9.7,-5.24 14.44,-6.35 21.13,-14.85 5.87,-7.46 9.29,-16.42 6.25,-28.9 -6.28,-25.84 -63.12,-23.92 -81.74,-11.41 -7.73,5.19 -13.35,12.33 -12.75,24.01 1.05,20.34 23,33.6 37.48,34.19z"/>
   <path class="fil11" d="M1114.2 1303.21c-4.2,28.57 -9.72,42.08 -31.84,63.49 -26.98,26.11 -76.03,31.75 -108.75,13.31 -19.28,-10.86 -37.32,-29.51 -44.43,-51.18 -24.08,-73.35 34.41,-135.17 98.79,-128.94 13.15,1.27 25.02,4.55 36.22,10.81 21.34,11.92 36.07,27.93 44.75,50.98 4.27,11.33 7.43,26.81 5.26,41.53zm17.57 1.4c2.56,-15.8 -1.52,-37.06 -6.33,-49.63 -5.96,-15.6 -11.74,-23.91 -21.11,-35.09 -39.87,-47.58 -116.81,-49.36 -160.2,-8.97 -63.31,58.92 -41.53,152.6 22.43,184.67 13.91,6.98 25.15,10.24 43.31,12.7 9.03,1.22 19.07,-0.28 27.29,-1.2 7.8,-0.89 14.61,-3.88 21.75,-6.14 25.54,-8.1 47.01,-29.43 60.04,-52.49 8.32,-14.71 10.23,-27.86 12.82,-43.85z"/>
   <path class="fil9" d="M385.93 905.2c-4.57,13.58 -8.12,27.4 -6.24,44.81 3.24,29.85 12.93,52.35 30.41,74.95 15.1,19.51 36.74,36.02 59.55,45.84 29.45,12.68 56.36,16.84 89.54,15.97 9.7,-0.25 38.87,-2.39 46.3,-6.39 0.22,-3.21 -4.01,-10.98 -5.51,-14.08 -2.12,-4.4 -3.12,-9.55 -4.64,-14.98 -0.75,0.47 -0.42,0.32 -1.79,0.7 -1.31,0.36 0.08,0.01 -1.27,0.27 -0.05,0 -2.46,0.28 -2.48,0.28 -22.77,2.15 -53.48,-2.7 -74.4,-9.92 -64.98,-22.43 -110.69,-78.67 -121.86,-150.26 -4.74,1.98 -3.89,8.8 -7.61,12.81z"/>
   <path class="fil8" d="M953.55 903.66c1.54,1.85 3.18,2.24 4.05,5.43 3.23,11.82 -10.31,15.08 -12.56,16.65 -0.09,15.08 20.27,10.4 23.02,4.69 3.01,-6.91 -6.27,-10.28 -7.01,-16.16 5.78,0.04 11.1,6.71 13.07,10.46 3.96,7.53 -2.83,11.51 -6.22,14.37 -0.6,1.15 2.56,31.03 -26.35,30.98 -9.3,-0.02 -15.42,-3.17 -19.65,-8.54 -5.21,-6.62 -6,-11.73 -6.41,-21.82 -3.53,-3.11 -9.69,-5.78 -6.24,-14.81 0.83,-2.18 6.76,-9.43 12.23,-10.02 -1.09,6.24 -14.69,14.19 -3.15,19.13 8.27,3.53 20.21,3.6 19.75,-8.28 -2.02,-1.35 -5.2,-1.68 -7.02,-2.93 -12.08,-8.28 -3.6,-16.7 -2.67,-18.35 1.1,-3.72 7.05,-4.86 8.24,-3.36 -8.62,-2.14 -25.77,7.35 -34.42,9.05 -11.93,2.34 -17.78,3.03 -29.98,0.5 -7.81,-1.62 -5.79,0.28 -8.42,1.81 -1.6,1.87 -5.32,10.6 -11.33,17.01l-14.7 13.84c0.91,5.77 14.9,18.97 19.59,22.31 3.89,2.77 8.53,5.32 13.88,7.22 14.36,5.1 38.08,8.96 53.41,9.78 13.8,0.74 27.87,-0.03 40.7,-1.34 11.44,-1.18 25.49,-3.18 36.21,-6.04 11.17,-2.97 20.43,-7.33 28.38,-13.8 7.81,-6.36 13.91,-14.23 18.29,-23.92 2.94,-6.53 7.85,-28.25 4.52,-35.95 -2.14,-1.76 -1.43,-1.37 -1.9,-5.05 -10.85,1.22 -31.5,12.88 -48.33,14.67 -23.39,2.49 -39.77,-10 -51.16,-10.07l2.18 2.54z"/>
   <path class="fil12" d="M572.86 548.28c4.52,29.4 26.78,53.54 60.85,52.37 14.39,-0.5 30.19,-9.25 38.13,-19.14 19.78,-24.67 16.68,-59.21 -6.68,-80.17 -8.48,-7.61 -10.36,-6.58 -17.38,-10.73 -5.77,-3.41 -15.51,-4.44 -23.95,-4 -13.62,0.71 -25.04,6.63 -34.36,15.34l-1.54 1.35c-4.26,3.5 -5.22,6.29 -7.64,10.44 -4.84,8.26 -9,24.32 -7.43,34.54z"/>
   <path class="fil2" d="M530.94 1601.95c2.4,-3.78 0.85,-28.83 1.03,-35.85 0.32,-12.46 0.08,-24.78 0.58,-37.29 2.74,4.83 7,66.42 8,77.92 0.56,6.41 0.84,13.04 1.22,19.78 0.99,17.27 -3.58,40.35 28.08,37.27 -1.18,4.14 -1.72,2.93 -3.94,6.39 6.45,-4.55 20.31,-28.24 25.94,-37.64 9.85,-16.44 29.25,-60.14 35.83,-78.06 1.79,-4.86 6.6,-13.66 6.39,-18.6l-60.89 -15.26c-0.86,-0.21 -2.17,-0.37 -3.13,-0.57 -6.99,-1.45 -32.99,-10.35 -37.92,-10.38l-1.19 92.29z"/>
   <path class="fil2" d="M476.52 1245.1c1.54,6.93 4.99,13.65 7.67,19.76 1.33,3.02 2.12,6.63 3.56,9.94 1.36,3.14 2.16,7.04 3.96,9.63 3.42,-0.07 4.31,-1.89 6.42,-3.58l34.55 -26.59c21.6,-15.85 15.51,-6.43 19.04,-20.35 6.65,-26.18 22.16,-15.96 10.03,-28.86 -11.99,-12.75 -31.96,-33.7 -44.07,-43.81 -2.1,-1.75 -3.92,-3.51 -5.96,-5.27 -3.53,-3.04 -8.29,-6.9 -11.9,-9.89 -4.16,-3.45 -21.62,-16.48 -26.38,-17.83l0.77 2c-11.78,0.47 -22.08,10.21 -20.87,23.11 0.53,5.62 3.59,11.8 5.2,16.44l14.85 50.56c0.77,3.12 8.58,30.62 8.24,33.04 -0.27,1.97 0.28,0.36 -0.71,1.72 -0.55,-2.32 -2.61,-8.38 -4.4,-10.02z"/>
   <path class="fil9" d="M1355.02 1100.77c-8.31,1.45 -13.63,1.6 -22.15,6.26 -5.68,3.11 -10.98,8.61 -13.45,14.42 -12.17,28.64 44.94,73.45 101.91,66.45 15.89,-1.95 31.08,-8.02 35.49,-21.15 5.77,-17.19 -8.76,-32.86 -16.22,-39.29 -11.26,-9.7 -20.45,-14.28 -36.45,-20.49 -11.93,-4.64 -33.33,-8.94 -49.13,-6.2z"/>
   <path class="fil4" d="M645.52 1309.71c2.04,2.77 4.45,2.16 8.65,3.46 3.65,1.12 4.53,2.14 9.02,2.57 33.75,3.2 56.87,-15.39 73.37,-42.62 3.14,-5.19 5.66,-8.61 8.58,-14.53 2.52,-5.11 5.66,-10.38 7.88,-15.84 4.51,-11.09 8.49,-23.06 13.16,-33.52 2.34,-5.25 4.88,-10.78 7.15,-15.86 12.61,-28.12 32.58,-54.11 59.82,-68.99 4.63,-2.53 12.91,-9.02 21.94,-12.9 12.96,-5.57 18.15,-8.44 33.04,-14.3 18.8,-7.39 34.45,-11.91 51.12,-18.28l88.19 -29.27c8.52,-2.84 27.56,-9.98 35,-10.86 6.45,-0.77 14,-0.98 21.61,-2.03 8.67,-1.19 17.64,-0.94 21.26,-2.05 1.63,-0.5 5.22,1.24 8.44,-1.38 -38.27,-0.01 -86.23,8.88 -123.6,16.33 -25.16,5.01 -49.98,12.65 -74.28,19.17 -11.19,3 -40.33,13.18 -52.27,17.34 -8.05,2.79 -78.85,30.82 -82.57,34.01 -1.17,1.01 -11.58,29.18 -13.3,33.15 -4.54,10.47 -9,21.6 -13.74,32.53l-20.67 49.87c-1.04,2.62 -2.4,4.86 -3.53,7.45 -3.59,8.18 -6.33,16.89 -10.43,24.89 -7.45,14.53 -17.05,31.03 -32.74,37.39 -15.6,6.33 -23.28,5.97 -41.1,4.27z"/>
   <path class="fil13" d="M520.11 1484.09c-0.03,5.46 8.34,12.59 14.16,14.88 19.24,7.56 68.49,18.84 91.07,24.29 7.81,1.88 15.55,3.32 23.45,5.24l48.2 9.32c9.19,1.09 16.83,2.74 25.8,3.96 8.04,1.1 17.8,2.43 25.56,3.46l50.51 6.61c6.46,1.31 20.01,1.4 26.86,2.03 8.97,0.83 18.51,1.21 27.98,1.39 9.38,0.17 17.08,1.4 26.7,1.58 46.7,0.88 95.43,-0.06 140.55,-4.41 17.46,-1.69 33.54,-5.21 50.63,-6.75 19.12,-1.73 74.14,-14.91 94.76,-20.6 20.91,-5.77 66.29,-21.56 85.09,-30.1 7.37,-3.35 34.14,-15.46 38.91,-18.63 -0.34,-2.12 -1.74,-5.23 -3.13,-6.63l-3.37 -2.85c-13.73,5.76 -25.44,12.24 -39.11,17.85 -13.77,5.67 -27.01,10.64 -41.43,15.7l-21.88 7c-19.23,7.63 -79.26,21.3 -102.61,24.72 -3.75,0.55 -7.96,1.7 -11.55,2.18 -17.1,2.25 -33.5,4.26 -50.78,6.38 -34.3,4.21 -71.26,5.23 -107.97,5.2 -17.44,-0.02 -91.42,-2.39 -109.69,-4.8 -8.4,-1.11 -17.7,-1.88 -25.95,-2.84l-120.76 -19.91c-15.87,-3.73 -30.43,-6.01 -46.27,-10.11l-77.69 -21.55c-3.32,-1.76 -5.36,-3.87 -8.07,-5.53l0.03 2.92z"/>
   <path class="fil14" d="M444.23 1490.08c-21.13,3.65 -48.96,1.71 -69.55,-1.51 -19.01,-2.97 -47.91,-5.69 -65,-9.47 -12.77,-2.82 -88.58,-14.57 -94.01,-17.94 -4.32,-2.67 -6.68,-7.87 -3.8,-13.93 1.94,-4.08 28.09,-19.11 33.09,-22.47 7.82,-5.26 14.92,-9.53 22.73,-14.45l35.36 -21.04c3.52,-2.22 7.39,-4.61 11.46,-6.84 4.11,-2.26 7.8,-4.74 11.77,-7.08 17.66,-10.41 35.98,-20.13 54.63,-29.11 2.32,-1.11 3.31,-1.73 6.12,-2.94 4.42,-1.91 9.15,-3.97 13.78,-5.18 2.38,-0.62 5.17,-1 7.61,-1.22 3.06,-0.29 6.19,-1.28 8.26,0.26 2.18,5.72 2.81,22.36 5.44,26.67l-4.18 -28.32c-9.57,-1.84 -36.03,4.33 -45.3,6.37 -12.23,2.69 -58.22,24.74 -72.3,32.79l-25.83 13.62c-2.88,1.42 -5.35,2.82 -8.21,4.44l-25.47 14.5c-8.14,5.05 -18.31,9.58 -25.4,14.05 -12.41,7.82 -30.11,17.02 -41.52,24.52 -4.91,3.23 -38.59,21.86 -39.77,24.7 2.31,1.64 71.34,12.74 75.08,13.21 6.97,0.9 12.85,1.76 20.23,2.65 6.46,0.77 12.04,2.23 18.35,3.05l38.92 5.27c5.79,0.71 15.6,0.84 20.45,2.19 8.48,2.36 51.45,4.51 61.56,4.84 29.23,0.95 34.23,0.68 59.37,-5.57l12.95 -3.8c3.34,-1.27 1.89,0.01 3.18,-2.26z"/>
   <path class="fil15" d="M1269.73 1410.47c1.17,5.21 3.82,9.43 6.18,13.8 4.84,8.91 8,17.2 12.88,25.79 1.41,2.46 5.16,10.57 6.88,12.22l0.42 -2.33c13.14,-5.43 60.53,-34.72 72.24,-44.13 17.53,-14.1 30.57,-22.71 48.54,-39.32 5.01,-4.63 9.93,-8.53 15.45,-14.09l28.75 -29.6c18.35,-20 36,-42.86 51.25,-65.43 3.53,-5.23 21.91,-32.59 22.44,-36.49 -2.93,2.01 -10.46,11.58 -13.13,14.91 -6.78,8.46 -26.04,28.71 -34.15,36.14 -2.48,2.27 -4.73,4.24 -7.2,6.84l-29.49 26.74c-5.2,4.33 -10.27,8.68 -15.47,12.67 -26.25,20.14 -37.4,28.17 -66.03,46.43 -5.35,3.42 -12.16,7.06 -17.62,10.48 -5.64,3.54 -12.02,6.81 -18,10.14 -6.77,3.76 -11.44,6.32 -18.59,9.63 -3.12,1.45 -5.62,3.1 -9,4.85l-29.25 13.45c-3.66,-3.75 -4.03,-9.11 -7.1,-12.7z"/>
   <path class="fil9" d="M588.91 60.55c-9.06,4.32 -11.18,19.2 -14.4,27.19 -0.62,1.54 -1.61,3 -1.91,4.66 -2.58,14.2 -5.2,43.44 -5.11,58.02 0.05,7.39 0.53,19.05 2.94,24.54 3.81,8.65 13.58,2.1 18.69,-0.89 13.48,-7.91 20.46,-13.41 32.71,-22.82 5.38,-4.14 10.36,-7.77 15.59,-11.85l32.07 -23.34c4.04,-7.8 -4.52,-15.23 -8.67,-17.98 -5.99,-3.96 -10.43,-7.44 -16.21,-11.29 -10.49,-6.98 -45.01,-31.35 -55.7,-26.24z"/>
   <path class="fil16" d="M444.23 1490.08c-0.03,-0.96 0.06,-0.98 -0.14,-2.01 -0.45,-2.27 -0.36,-1.05 -0.71,-1.68l-0.28 2.89c-21.69,-0.43 -32.5,-3.3 -53.18,-7.06 -28.13,-5.1 -46.24,-10.55 -72.88,-17.07 -8.02,-1.97 -15.47,-3.93 -23.09,-6.34 -15.35,-4.85 -28.71,-3.63 -27.3,-17.88 0.5,-5.08 3.64,-6.04 6.61,-8.28l87.25 -62.46c6.41,-4.51 11.92,-7.39 17.98,-11.54 5.85,-4 12.99,-7.97 18.84,-11.42l9.64 -5.09c2.92,-1.98 5.96,-4.64 9.71,-4.98 -2.07,-1.54 -5.2,-0.55 -8.26,-0.26 -2.44,0.22 -5.23,0.6 -7.61,1.22 -4.63,1.21 -9.36,3.27 -13.78,5.18 -2.81,1.21 -3.8,1.83 -6.12,2.94 -18.65,8.98 -36.97,18.7 -54.63,29.11 -3.97,2.34 -7.66,4.82 -11.77,7.08 -4.07,2.23 -7.94,4.62 -11.46,6.84l-35.36 21.04c-7.81,4.92 -14.91,9.19 -22.73,14.45 -5,3.36 -31.15,18.39 -33.09,22.47 -2.88,6.06 -0.52,11.26 3.8,13.93 5.43,3.37 81.24,15.12 94.01,17.94 17.09,3.78 45.99,6.5 65,9.47 20.59,3.22 48.42,5.16 69.55,1.51z"/>
   <path class="fil17" d="M430.82 1361.48c0.12,4.98 2.41,13.95 3.28,18.44 1.14,5.87 2.18,12.48 3.11,18.06 0.98,5.85 6.48,31.39 6.01,35.27 1.79,1.61 0.1,-0.58 1.1,1.57l1.17 5.07c1.72,10.05 1.14,15.21 6.83,19.43 16.67,12.36 37.05,8.05 46.75,-8.16 3.48,-5.8 2.46,-7.3 1.34,-13.84 -0.82,-4.8 -2.37,-10.98 -2.47,-15.83 0.13,-4.24 -7.49,-45.14 -8.88,-51.78 -1.73,-8.29 -2.92,-17.76 -4.12,-26.37 -0.55,-3.9 -1.68,-8.55 -2.49,-12.74 -0.93,-4.78 -1.02,-8.92 -4.09,-11.19 1.03,5.65 2.98,9.97 3.65,16.17 0.62,5.69 2.55,12.03 3.06,18 -2.48,-0.92 -4.43,-2.62 -6.54,-4.17 -6.02,-4.4 -17.33,-5.43 -24.53,-3.21 -11.12,3.43 -14.93,8.62 -20.28,16.3 -0.58,0.83 -0.61,0.87 -1.05,1.33l-1.85 -2.35z"/>
   <path class="fil9" d="M973.25 121.82c7.1,5.32 15.61,10.21 23.39,15.69 3.03,2.13 8.35,5.5 11.28,8.39 1,0.99 10.61,8.15 11.53,8.58 8.09,1.55 9.31,-0.9 9.79,-8.98 1.42,-24.09 -3.96,-49.36 -8.69,-72.69 -1.22,-6.01 -2.52,-10.57 -4.31,-16.19 -1.25,-3.94 -4.22,-10.31 -6.4,-13.89 -3.47,-5.71 -7.08,-6.1 -13.97,-3.18 -10.26,4.35 -50.06,42.91 -51.56,50.48 -1.83,9.2 1.71,10.5 6.42,13.98 3.99,2.96 7.98,5.77 11.77,8.62 1.89,1.42 3.62,2.93 5.53,4.32l4.16 3.57c0.84,0.92 0.35,0.2 1.06,1.3z"/>
   <path class="fil18" d="M938.73 1266.81c0.19,-6.79 12.31,-23.53 16.39,-28.07 44.71,-49.66 123.03,-31.72 144.28,25.92 4.31,11.68 5.79,26.7 4.43,41.38 -0.87,9.35 -7.3,28.03 -11.99,33.02 -2.07,6.31 -13.23,17.66 -18.09,21.8 -6.4,5.46 -17.38,11.76 -25.57,14.6 -43.11,14.96 -85.38,-3.13 -106.51,-42.04l-4.3 -10.39c-2.23,-6.12 -3.77,-14.14 -4.07,-21.22 -0.26,-6.29 -0.48,-13.02 0.62,-19.17l4.81 -15.83zm175.47 36.4c2.17,-14.72 -0.99,-30.2 -5.26,-41.53 -8.68,-23.05 -23.41,-39.06 -44.75,-50.98 -11.2,-6.26 -23.07,-9.54 -36.22,-10.81 -64.38,-6.23 -122.87,55.59 -98.79,128.94 7.11,21.67 25.15,40.32 44.43,51.18 32.72,18.44 81.77,12.8 108.75,-13.31 22.12,-21.41 27.64,-34.92 31.84,-63.49z"/>
   <path class="fil19" d="M729.28 356.65c-23.54,0 -37.93,1.36 -59.5,7.07 -3.64,0.96 -7.84,1.96 -7.4,7.43 0.43,5.43 4.95,4.92 9.76,5.72 12.45,2.09 42.28,6.09 52.25,8.47 8.14,1.94 17.16,3.46 25.27,5.09 7.59,1.52 15.9,4.48 23.26,6.68 8.16,2.43 15.17,5 22.06,8.79 6.8,3.74 11.59,5.18 19.16,11.12 7.25,5.68 12.57,7.69 21.33,1.93 6.15,-4.04 8.36,-13.22 4.09,-20.41 -2,-3.38 -12.54,-13.02 -15.54,-15.3 -24.29,-18.49 -62.53,-26.59 -94.74,-26.59z"/>
   <path class="fil5" d="M593.27 1040.38c-2.73,-19.87 -1.29,-44.28 1.65,-64.55 0.42,-2.88 1.58,-5.67 2.24,-8.71 0.88,-4.04 1.26,-6.38 1.29,-10.99 -3.44,0.27 -15.35,2.76 -18.17,4.11 -1.5,2.17 -3.29,7.55 -4.69,10.13 -4.51,8.3 -14.73,18.76 -23.68,21.85 -13.98,4.83 -33.14,2.58 -40.25,-8.39 -2.89,-4.46 -0.41,-9.35 4.93,-4.95 11.83,9.76 29.82,6.76 40.61,-5.93 10.62,-12.49 15.77,-28.63 15.72,-49.33 -0.05,-17.41 -6.75,-34.39 -15.34,-49.02 -5.16,-8.77 -24.01,-27.8 -34.94,-30.91 1.34,2.79 1.42,1.31 3.24,3.61 2.81,3.58 12.78,26.08 14.04,30.75 0.9,3.32 1.53,6.91 2.61,10.43l5.51 19.3c1.73,8.59 2.91,28.46 0.39,35.56 -5.75,16.23 -13.88,27.88 -32.55,31.6 -2.44,0.49 -27.28,-5.53 -0.08,19.49 4.79,4.41 12.47,9.67 19.33,12.3 31.54,12.11 46.11,4.25 54.75,4.77 0.52,1.12 2.17,25.25 2.88,29.82l0.51 -0.94z"/>
   <path class="fil4" d="M737.91 787.3l1.32 -1.36c1.83,-2.13 0.05,-1.22 2.48,-2.63 3.05,6 17.3,26.19 17.51,27.15 -3.69,0.22 -9.52,-0.32 -12.36,2.28l18.74 -1.31 15.27 -28.05c2.76,-4.5 5.17,-8.55 8.72,-13.11 1.46,-1.88 2.91,-3.91 4.58,-5.99 12.53,-15.59 32.18,-33.46 49.59,-43.16 2.43,-1.35 2.02,-0.42 3.12,-2.95 -10.21,-0.27 -35.09,1.59 -48.72,1.76 -7.51,0.09 -46.69,-0.95 -50.24,0.15 -0.54,12.7 -0.06,24.67 -2.47,36.25l-3.18 14.93c-1.25,4.79 -3.44,11.12 -4.36,16.04z"/>
   <path class="fil4" d="M1036.08 682.41c-2.43,1.69 -5.02,1.08 -6.84,3.44 -1.66,2.16 -1.57,6.66 -1.57,10.04 -0.02,22.53 20.82,20.32 27.04,27.42 2.57,2.93 1.84,4.65 2.19,9.03 5.42,5.6 14.02,10.75 21.44,19.36 8.32,9.66 5.34,8.28 17.72,0.4 0.67,-0.42 1.2,-0.68 1.7,-1.21 1.23,-1.29 0.51,-0.1 1.56,-2.28 -4.23,1.32 -1.44,0.48 -2.5,0 0.19,-7.32 1,-16.84 1.59,-23.93 1.04,-12.48 0.06,-37.16 -0.54,-50.59 -0.28,-6.25 -2.99,-19.4 -1.7,-24.17 -4.09,1.56 -4.06,2.52 -7.33,4.85 -12.44,8.86 -39.66,24.17 -52.76,27.64z"/>
   <path class="fil0" d="M900.17 86.82c1.34,1.66 16.54,6.81 19.12,7.83 12.16,4.83 32.91,15.34 44.54,22.17 1.92,1.12 6.62,4.13 9.42,5 -0.71,-1.1 -0.22,-0.38 -1.06,-1.3l-4.16 -3.57c-1.91,-1.39 -3.64,-2.9 -5.53,-4.32 -3.79,-2.85 -7.78,-5.66 -11.77,-8.62 -4.71,-3.48 -8.25,-4.78 -6.42,-13.98 1.5,-7.57 41.3,-46.13 51.56,-50.48 6.89,-2.92 10.5,-2.53 13.97,3.18 2.18,3.58 5.15,9.95 6.4,13.89 1.79,5.62 3.09,10.18 4.31,16.19 4.73,23.33 10.11,48.6 8.69,72.69 -0.48,8.08 -1.7,10.53 -9.79,8.98 1.17,1.64 0.52,0.88 2.25,2.3l16.01 13.49c3.71,2.79 14.69,15.19 17.7,15.88 1.39,-3.1 -1.33,-15.76 -1.68,-20.27 -0.28,-3.48 -0.67,-7.13 -1.28,-10.69 -0.32,-1.9 -0.54,-3.07 -0.81,-4.72 -0.18,-1.08 -0.14,-1.31 -0.42,-2.36l-2.03 -14.95c-1.53,6.53 4.7,44.49 5.2,51.32 -2.95,-11.57 -4.29,-26.15 -6.29,-38.7 -2.14,-13.5 -4.82,-25.85 -7.29,-38.43 -2.45,-12.53 -5.96,-24.29 -9.44,-36.26 -2.94,-10.13 -8.02,-22.53 -13.88,-31.78 -6.57,-10.4 -14.01,-16.03 -30.39,-11.25 -21.19,6.19 -39.24,23.81 -53.88,37.42 -4.25,3.95 -20.05,20.23 -22.09,24.26 -6.26,-0.68 -6.7,-2.94 -10.96,-2.92z"/>
   <path class="fil19" d="M1088.45 342.02c-40.49,0.01 -78.97,10.96 -103.08,38.51 -21.66,24.76 1.41,42.9 13.63,30.5 9.37,-9.52 19.32,-17.37 31.79,-23.09 13.57,-6.23 14.16,-6.7 29.37,-12.09 17.02,-6.04 34.74,-10.32 52.4,-15.81 3.26,-1.01 19.82,-3.56 12.9,-12.58 -3.74,-4.86 -30.97,-5.44 -37.01,-5.44z"/>
   <path class="fil2" d="M515.07 1390.1l0 6.36c2.18,1.01 4.18,2.64 6.32,3.65 2.59,1.23 4.93,2.22 7.49,3.05 25.89,8.41 62.36,1.61 84.6,-11.18 10.11,-5.82 3.76,-2.06 11.84,-8.54 3.85,-3.09 6.97,-6.22 9.16,-11.93 -6.42,-18.4 -46.55,-18.9 -66.71,-14.22 -7.11,1.65 -11,2.55 -17.24,4.73 -13.41,4.69 -31.07,14.45 -35.46,28.08z"/>
   <path class="fil20" d="M707.93 101.34c5.79,3.28 2.68,3.08 14.8,-0.32 24.81,-6.95 68.77,-10.51 93.27,-7.77 3.17,0.35 6.42,0.44 9.63,0.61l26.3 4.35c2.67,0.65 5.65,0.83 8.33,1.63 16.79,5.01 39.23,10.37 53.73,17.65 10.19,5.1 23.27,8.96 34.4,16.21 2.07,1.35 4.72,2.14 7.15,3.48 33.55,18.55 66.32,43.56 93.39,70.35l30.18 31.63c12.51,13.3 44.73,56.1 51.48,71.62 2.56,0.52 0.27,0.31 1.48,-1.09 -1.36,-7.03 -26.16,-43.97 -31.85,-51.55 -11.22,-14.96 -24.19,-31.8 -38.22,-46.12 -12.42,-12.66 -18.27,-18.93 -31.78,-30.78 -22.88,-20.05 -33.89,-28.44 -59.84,-45.58 -12.62,-8.33 -41.51,-23.67 -55.04,-28.56 -25.58,-9.26 -35.77,-14.19 -64.18,-20.22 -41.73,-8.84 -73.55,-7.5 -114.85,-0.31 -5.29,0.92 -30.65,6.94 -33.03,9.03 0.7,2.68 2.2,3.29 4.65,5.74z"/>
   <path class="fil11" d="M1096.17 649.92c-1.29,4.77 1.42,17.92 1.7,24.17 0.6,13.43 1.58,38.11 0.54,50.59 -0.59,7.09 -1.4,16.61 -1.59,23.93 1.06,0.48 -1.73,1.32 2.5,0 4.67,0.5 26.29,-22.6 30.62,-28.77 7.95,-11.34 16.98,-25.88 17.28,-43.61 0.3,-17.19 -7.04,-33.83 -17.98,-42.2 -8.42,-6.44 -9.19,-6.5 -13.3,-2.07 -1.69,1.83 -2.47,2.36 -4.01,3.79 -2.42,2.23 -5.17,4.65 -8.17,7.26 -1.86,1.63 -7.44,5.49 -7.59,6.91z"/>
   <path class="fil5" d="M734.9 1180.91c2.14,1.46 3.71,2.25 5.84,3.52l5.25 -10.71c4.33,-11.36 19.78,-44.73 26.2,-56.04l8.47 -16.02c1.52,-3.01 1.31,-3.57 5.53,-2.99 0.66,5.34 -1.28,4.95 -0.87,8.6 2.61,-0.32 15.33,-7.03 19.49,-8.9 3.33,-1.49 7.34,-2.55 10.81,-4.07l21.77 -8.53c5.12,-2.3 28.55,-11.61 33.17,-12.46l0.15 -0.57c0,-0.01 0.02,-0.17 0.02,-0.18 -0.15,-1.38 -0.06,-0.24 -0.17,-0.04l15.35 -4.81c1.75,-0.95 0.92,-0.4 1.94,-1.39 -0.97,-1.65 -0.41,-0.94 -2.25,-1.81 -0.57,-0.27 -1.7,-0.53 -2.66,-0.85 -10.44,-3.5 -27.56,-11.24 -36.29,-16.34 -8.08,-4.71 -19.66,-12.22 -26.48,-18.45 -2.51,-2.3 -5.76,-6.03 -9.13,-7.17 -0.09,0.11 -0.23,0.15 -0.27,0.33l-0.98 1.09c-0.08,0.08 -0.26,0.26 -0.39,0.4 4.18,2.95 15.06,12 18.14,15.52 2.64,3.02 3.65,9.89 2.05,14.34 -3.21,8.97 -13.26,8.05 -21.86,12.61 -4.05,2.16 -7.55,2.96 -11.51,5.42 -24.33,15.13 -33.92,32.21 -44.66,58.03 -3.34,8.04 -6.23,16.46 -9.2,24.63 -1.56,4.31 -9.12,21.51 -9.36,24.72l1.9 2.12z"/>
   <path class="fil12" d="M1151.4 457.51c7.46,-0.49 16,-4.08 22.32,-3.82 0.78,22.68 2.05,18.9 -9.72,20.93 -13.37,2.31 -23.79,8.05 -32.72,18.07 -3.48,3.9 -5.31,7.19 -8.17,12.24 -5.1,9.03 -7.43,22 -5.65,34.82 2.64,19.13 11.35,25.06 11.46,28.72 3.95,3.08 5.4,7.12 11.2,10.37l-0.72 3.68c3.03,-2.44 18.28,-33.49 19.97,-38.39 2.58,-7.47 3.65,-6.39 6.23,-18.44l3.59 -13.22c2.21,-8.83 4.37,-18.15 4.68,-28.84 0.31,-10.59 2.25,-19.67 1,-31.14 -1.17,-10.71 -1.63,-20.75 -3.08,-30.77l-13.61 -52.5c0.62,3.87 1.71,6.26 2.73,9.86 6.54,23.06 5.52,13.86 9.77,40.13 1.7,10.52 3.64,22.6 3.27,32.97 -4,0.26 -8.24,1.7 -11.91,2.42l-9.59 2.4c-0.12,0.05 -0.43,0.41 -0.52,0.25 -0.09,-0.16 -0.36,0.16 -0.53,0.26z"/>
   <path class="fil20" d="M588.41 897.44c0.3,5.42 6.88,14.64 10.08,18.53 14.22,17.31 58.17,34.16 78.84,37.53 8.95,1.46 16.21,2.53 26.19,3.72 9.9,1.18 48.56,2.32 55.52,-1.1l-14.16 0.95c-0.03,-3.34 -0.15,-6.97 0.06,-10.29 0.3,-4.95 4.26,-15.9 -3.03,-23.06 -5.18,-5.09 -15.22,-9.13 -18.65,-20.33 -7.11,-23.16 15.12,-30.71 18.01,-40.11 1.59,-5.19 1.68,-11.96 1.51,-18.24 -2.27,3.24 -0.79,1.33 -1.14,2.67 -2.43,9.5 3.95,13.03 -9.61,24.58 -16.35,13.93 -16.66,35.44 3.34,48.05 13.91,8.77 8.37,24.73 6.9,26.17 -2.76,2.57 -25.37,0.15 -29.81,-0.52 -23.18,-3.51 -41,-8.33 -61.15,-19.53 -4.01,-2.23 -6.01,-3.66 -10.23,-5.98 -2.96,-1.64 -6.89,-4.74 -9.44,-6.74 -11.26,-8.86 -23.29,-21.46 -30.52,-34.22 -1.88,-3.33 -3.86,-7.21 -5.74,-10.37 -4.83,-8.12 -6.83,-20.22 -8.78,-23.45 -2.34,4.9 -1.72,32.32 -0.63,39.76 0.46,3.13 2.56,9.91 2.44,11.98z"/>
   <path class="fil9" d="M745.45 308.18c13.08,0.01 21.17,-0.89 32.75,-6.19 6.5,-2.97 15.44,-10.45 15.61,-18.73 0.61,-30.96 -84.22,-33.14 -90.18,-1.85 -3.53,18.56 25.11,26.76 41.82,26.77z"/>
   <path class="fil6" d="M883.81 591.74c3.09,3.99 14.03,5.74 20.48,5.94 14.12,0.43 31.35,-2.89 40.22,-13.42 3.24,-3.85 7.97,-13.37 7.33,-19.05 -0.08,-6.93 1.24,-7.45 -0.66,-15.5 -14.56,-0.46 -19.76,-6.2 -26.56,-5.65 -2.9,4.6 -2.16,14.96 -3.7,20.85 -1.58,-3.93 -2.01,-14.7 -8.24,-22.86 -6.73,-0.51 -4.09,3.04 -15.16,7.06 -32.07,11.66 -14.49,38.61 -13.71,42.63z"/>
   <path class="fil11" d="M1015.92 1272.28c11.97,39.13 74.17,34.39 69.21,1.65 -2.14,-14.12 -18.09,-25.68 -34.29,-28.12 -23.22,-3.49 -39.44,11.68 -34.92,26.47z"/>
   <path class="fil4" d="M675.87 983.25c1.95,1.28 0.36,-0.01 1.56,1.22 0.72,0.73 8.94,18.3 18.81,21.17 -2.85,-4.42 -11.54,-7.99 -13.05,-14.9 6.05,0.13 11.42,1.46 17.38,1.95 43.74,3.59 65.35,-5.91 106.26,28.74l3.65 -0.38c-1.1,-3.18 -28.26,-27.74 -37.62,-52.68 -3.83,-0.93 -19.52,1.85 -24.62,2.32 -8.91,0.82 -18.02,0.96 -27.39,0.78 -30.11,-0.61 -32.91,-4.58 -50.81,-6.09 0.34,6.52 5.88,15.61 5.83,17.87z"/>
   <path class="fil9" d="M1046.77 251.99c-3.07,0.94 -4.28,-0.08 -11.82,3.11 -6.36,2.7 -14.21,7.44 -16.69,14.34 -5.17,14.35 7.11,24.85 17,27.61 8.18,2.28 18.71,4.3 28.2,2.07 15.11,-3.55 33.36,-11.69 26.6,-30.98 -3.49,-9.98 -28.96,-20.54 -43.29,-16.15z"/>
   <path class="fil5" d="M1016.2 1034.32c8.48,-0.89 14.57,-2.61 22.24,-3.7 16.37,-2.31 46.06,-39.39 54.35,-52.69 3.73,-6 6.11,-11.13 9.44,-17.32 3,-5.6 5.87,-12.56 8.03,-18.51 7.43,-20.4 10.09,-47.52 9.23,-70.48 -1.43,-38.05 -23.56,-89.3 -49.12,-111.47 -1.05,0.45 -1.64,0.41 -2.7,0.65 1.44,4.16 8.15,11.44 10.8,15.34 11.91,17.52 9.8,15.46 18.17,33.14 2.85,6.03 4.55,12.66 6.76,19.3 9.74,29.26 8.69,60.94 2.3,89.95 -1.27,5.8 -3.3,14.55 -5.66,19.54 -9.78,20.59 -12.02,30.29 -27.7,49.59 -9.27,11.4 -19.83,22.89 -32.43,31.61l-18.56 12.84c-2.36,0.96 -2.9,0.23 -5.15,2.21z"/>
   <path class="fil21" d="M791.91 812.54c-0.69,-6.13 22.41,-37.52 30.51,-45.28 4.23,-4.04 8.76,-8.42 13.65,-12.36 24.26,-19.57 38.53,-26.42 67.73,-35 17.74,-5.22 50.71,-8.04 69.83,-4.79 10.78,1.84 20.89,4.39 31.31,7.25 6.86,1.89 9.6,3.84 13.55,5.34 1.85,0.71 3.11,0.97 4.72,1.76l16.94 8.99c3.7,1.83 4.59,3.32 7.91,5.44l8.1 4.66c1.86,1.4 5.73,4.95 7.8,5.37 -12.42,-15.02 -49.58,-35.82 -68.56,-40.79 -16.01,-4.18 -28.81,-7.43 -47.53,-7.72 -8.79,-0.13 -16.3,2.15 -24.24,3.34 -38.64,5.77 -46.92,3.85 -82.35,27.41 -17.6,11.71 -28.86,23.89 -42.17,40.09 -2.6,3.15 -18.27,27.79 -19.36,32.66 -0.97,4.33 2.6,2.43 12.16,3.63z"/>
   <path class="fil22" d="M887.05 436.03c14.34,-2.28 19.04,-5.96 37.64,-4.45 3.14,0.26 3.29,0.49 4.57,1.42 -2.06,1.18 -15.75,1.53 -24.22,4.21 -15.27,4.81 -27.29,14.92 -18.63,31.13 4.52,8.45 11.11,9.88 14.22,13.18l-6.87 -1.42c0.88,1.1 -0.02,1.3 4.64,2.4 1.67,0.4 2.89,0.66 4.54,0.77 3.52,0.22 8.35,0.31 11.84,0.03 16.58,-1.34 38.29,-12.94 38.44,-31.32 0.25,-29.09 -55.83,-22.27 -64.22,-17.56 -1.46,0.82 -1.11,0.7 -1.95,1.61z"/>
   <path class="fil23" d="M1091.84 1339.06c-2.46,1.07 -1.29,0.29 -3.18,2.3 -0.81,0.86 -1.23,1.43 -2.03,2.17 -1.54,1.43 -3.06,2.51 -4.69,3.78 -2.93,2.27 -6.76,5.1 -10.49,7.01 -72.52,37.08 -138.79,-22.79 -134.14,-80.61 0.27,-3.42 1.17,-3.64 1.42,-6.9l-4.81 15.83c-1.1,6.15 -0.88,12.88 -0.62,19.17 0.3,7.08 1.84,15.1 4.07,21.22l4.3 10.39c21.13,38.91 63.4,57 106.51,42.04 8.19,-2.84 19.17,-9.14 25.57,-14.6 4.86,-4.14 16.02,-15.49 18.09,-21.8z"/>
   <path class="fil5" d="M631.2 723.14c16.43,-1.37 45.6,7.7 58.28,13.98 7.95,3.94 16.68,8.87 22.99,13.61 3.46,2.59 5.97,5.85 9.44,8.74 2.07,1.73 2.85,2.44 4.69,4.48 3.05,3.39 2.66,1.95 1.97,7.22 3.89,-6.03 8.52,-49.23 5.65,-52.09 -0.62,-0.62 -58.17,-5.77 -69.29,-8.11 -5.33,-1.12 -17.7,-3.67 -22.97,-3.28 -2.84,4.76 -8.69,10.36 -10.76,15.45z"/>
   <path class="fil9" d="M696.24 1005.64c5.66,4.28 12.85,8.62 20.85,11.08 27.77,8.52 28.43,7.42 59.28,6.93 5.06,-0.08 28.43,-1.09 30.46,-2.22 -40.91,-34.65 -62.52,-25.15 -106.26,-28.74 -5.96,-0.49 -11.33,-1.82 -17.38,-1.95 1.51,6.91 10.2,10.48 13.05,14.9z"/>
   <path class="fil20" d="M520.67 198.05c0.97,13.03 -1.65,28.22 0.56,41.7 0.09,-0.16 0.18,-0.59 0.2,-0.5 0.03,0.09 0.15,-0.39 0.18,-0.52l0.45 -3.93c0.1,-2.01 0.18,-3.97 0.33,-5.95 0.3,-4.15 0.65,-7.77 0.95,-11.64l4.71 -45.91c0.96,-7.2 2.67,-14.88 3.26,-21.61 2.28,-25.87 10.56,-62.04 19.13,-82.42 2.75,-6.55 5.07,-11.3 8.81,-16.54 4.29,-6 7.09,-8.46 17.51,-8.22 24.73,0.58 64.57,26.73 86.09,40.76 4.36,2.84 11.89,7.01 15.02,10.24 0.19,-0.1 0.53,-0.36 0.62,-0.19l1.53 -0.87c-8.34,-6.22 -14.07,-12.63 -26.18,-21.2 -24.74,-17.52 -51.89,-31.72 -82.2,-37.3 -10.3,-1.9 -12.75,-2.75 -19,3.77 -6.77,7.06 -12.13,21.35 -15.2,32.72 -1.56,5.75 -3.9,12.88 -5.08,18.51 -4.52,21.4 -15.53,93.51 -11.69,109.1z"/>
   <path class="fil24" d="M443.22 1433.25c0.48,8.92 3.37,18.37 5.18,25.61 1.94,7.79 3.04,16.99 4.44,25.07 4.56,26.24 37.49,33.86 50.83,11.28 10.38,-17.57 -0.93,-33.34 -0.9,-47.9 0.01,-3.41 -2.31,-22.82 -4.83,-25.82 0.1,4.85 1.65,11.03 2.47,15.83 1.12,6.54 2.14,8.04 -1.34,13.84 -9.7,16.21 -30.08,20.52 -46.75,8.16 -5.69,-4.22 -5.11,-9.38 -6.83,-19.43l-1.17 -5.07c-1,-2.15 0.69,0.04 -1.1,-1.57z"/>
   <path class="fil20" d="M900.17 86.82c4.26,-0.02 4.7,2.24 10.96,2.92 2.04,-4.03 17.84,-20.31 22.09,-24.26 14.64,-13.61 32.69,-31.23 53.88,-37.42 16.38,-4.78 23.82,0.85 30.39,11.25 5.86,9.25 10.94,21.65 13.88,31.78 3.48,11.97 6.99,23.73 9.44,36.26 2.47,12.58 5.15,24.93 7.29,38.43 2,12.55 3.34,27.13 6.29,38.7 -0.5,-6.83 -4.97,-35.38 -4.26,-38.79 0.47,-4.5 -5.21,-31.92 -6.64,-38.33 -3.99,-17.84 -22.22,-89.79 -41.65,-93.06 -7.85,-1.31 -39.93,11.35 -49.65,17.45 -20.68,13 -32.66,21.92 -49.86,40.1 -2.59,2.75 -9.64,8.75 -9.94,12.5 1.99,1.18 5.58,2.33 7.78,2.47z"/>
   <path class="fil25" d="M430.82 1361.48l1.85 2.35c0.44,-0.46 0.47,-0.5 1.05,-1.33 5.35,-7.68 9.16,-12.87 20.28,-16.3 7.2,-2.22 18.51,-1.19 24.53,3.21 2.11,1.55 4.06,3.25 6.54,4.17 -0.51,-5.97 -2.44,-12.31 -3.06,-18 -0.67,-6.2 -2.62,-10.52 -3.65,-16.17 -0.8,-7.54 -21.46,-26.65 -41.74,-9.47 -17.94,15.18 -6.41,36.57 -5.8,51.54z"/>
   <path class="fil26" d="M1500.46 1145.4c-6.11,-6.24 -42.38,-27.96 -50.21,-32.55 -19.98,-11.72 -33.56,-18.3 -54.59,-28.27 -9.55,-4.53 -18.97,-9.08 -29.64,-12.06l-45.99 -15.73c-6.49,-1.65 -10.17,-2.69 -16.25,-4.74 -4.98,-1.69 -30.16,-7.28 -34.65,-7.22 -4.14,0.02 -38.06,-6.83 -51.63,-7.71l-1.38 12.95c44.95,-0.31 82.66,9.75 122.97,20.91 29.18,8.08 92.79,35.5 116.95,50.18l30.22 17.56c3.52,2.17 12.42,8.35 15.72,9.31l-1.52 -2.63z"/>
   <path class="fil27" d="M643.24 1293.83c0.93,0.9 0.04,0.39 1.44,1.05l10.17 1.27c28.98,2.82 42.76,-12.74 53.85,-38.26 5,-11.51 30.92,-68.06 32.04,-73.46 -2.13,-1.27 -3.7,-2.06 -5.84,-3.52l-3.63 -0.83c-0.38,2.95 -13.11,30.17 -15.84,34.79 -15.86,26.89 -33.92,60.85 -62.34,76.78 -4.36,2.45 -4.16,1.82 -9.85,2.18z"/>
   <path class="fil28" d="M954.93 943.26c1.91,20.52 -18.46,15.54 -21.48,13.75 -2.49,-1.48 -7.59,-9.02 -4.82,-13.24 0.97,-1.48 5.06,-1.39 7.09,-2.08 3,-1.01 3.54,-2.27 5.83,-3.57 2.39,0.73 3.01,2.03 6.2,3.26 2.42,0.95 5.12,1.06 7.18,1.88zm-17.29 -36.47c16.34,-3.31 19.36,8.96 8.04,12.31 -11.59,3.43 -22.79,-9.32 -8.04,-12.31zm-9.25 -2.33c-0.93,1.65 -9.41,10.07 2.67,18.35 1.82,1.25 5,1.58 7.02,2.93 0.46,11.88 -11.48,11.81 -19.75,8.28 -11.54,-4.94 2.06,-12.89 3.15,-19.13 -5.47,0.59 -11.4,7.84 -12.23,10.02 -3.45,9.03 2.71,11.7 6.24,14.81 0.41,10.09 1.2,15.2 6.41,21.82 4.23,5.37 10.35,8.52 19.65,8.54 28.91,0.05 25.75,-29.83 26.35,-30.98 3.39,-2.86 10.18,-6.84 6.22,-14.37 -1.97,-3.75 -7.29,-10.42 -13.07,-10.46 0.74,5.88 10.02,9.25 7.01,16.16 -2.75,5.71 -23.11,10.39 -23.02,-4.69 2.25,-1.57 15.79,-4.83 12.56,-16.65 -0.87,-3.19 -2.51,-3.58 -4.05,-5.43 -4.26,-1.21 -8.56,-2.31 -13.43,-2.12 -5.28,0.21 -7.39,1.71 -11.73,2.92z"/>
   <path class="fil26" d="M530.94 1601.95c0.11,21.02 -0.72,42.32 -0.32,63.28 0.18,9.45 6.06,16.43 15.92,16.29 8.86,-0.12 16.46,-6.07 19.37,-11.35 2.22,-3.46 2.76,-2.25 3.94,-6.39 -31.66,3.08 -27.09,-20 -28.08,-37.27 -0.38,-6.74 -0.66,-13.37 -1.22,-19.78 -1,-11.5 -5.26,-73.09 -8,-77.92 -0.5,12.51 -0.26,24.83 -0.58,37.29 -0.18,7.02 1.37,32.07 -1.03,35.85z"/>
   <path class="fil26" d="M476.52 1245.1c1.79,1.64 3.85,7.7 4.4,10.02 0.99,-1.36 0.44,0.25 0.71,-1.72 0.34,-2.42 -7.47,-29.92 -8.24,-33.04l-14.85 -50.56c-1.61,-4.64 -4.67,-10.82 -5.2,-16.44 -1.21,-12.9 9.09,-22.64 20.87,-23.11l-0.77 -2c-2.59,-2.18 -13.83,-7.1 -18.24,-7.29 -8.93,-0.4 -14.43,3.67 -17.25,9.08 -3.79,7.28 -0.07,15.36 2.5,21.13 2.54,5.68 4.59,13.03 7.07,19.06 4.99,12.11 9.75,24.83 14.64,37.27 4.38,11.15 9.77,27.73 14.36,37.6z"/>
   <path class="fil5" d="M611.55 964.26c3.74,0.32 11.55,5.53 14.81,7.47 10.52,6.24 38.73,16.32 51.33,16.92 -0.53,-2.73 -0.87,-2.52 -1.82,-5.4 0.05,-2.26 -5.49,-11.35 -5.83,-17.87 -0.1,-0.08 -24.23,-7.39 -26.97,-8.32 -4.34,-1.46 -8.53,-3.52 -13.26,-5.06 -5.27,-1.7 -6.67,-3.33 -9.22,-4.23 -4.07,-1.43 -2.73,-0.39 -3,-0.36 -0.21,0.02 -0.48,0.12 -0.65,0.15 -2.5,0.41 -4.87,13.13 -5.39,16.7z"/>
   <path class="fil29" d="M883.81 591.74c-0.78,-4.02 -18.36,-30.97 13.71,-42.63 11.07,-4.02 8.43,-7.57 15.16,-7.06 6.23,8.16 6.66,18.93 8.24,22.86 1.54,-5.89 0.8,-16.25 3.7,-20.85 6.8,-0.55 12,5.19 26.56,5.65 1.9,8.05 0.58,8.57 0.66,15.5 0.12,-0.15 0.22,-0.38 0.28,-0.51 0.75,-1.85 1.16,-2.78 0.86,-10.12 -0.13,-3.24 -0.73,-7.39 -1.44,-10.01 -3,-1.1 -6.75,-1.3 -10.21,-2.57 -11.69,-4.33 -16.44,-14.98 -19.46,-16.57l-2.51 2.8c-5.1,6.41 -9.47,11.27 -17.9,15.1 -15.46,7.02 -27.1,2.87 -32.31,5.4 -3.17,14.93 2.96,39.34 14.66,43.01z"/>
   <path class="fil15" d="M515.07 1390.1c-3,9.87 6.81,17.99 15.34,20.24 2.76,0.73 1.58,0.44 3.97,1.42 13.18,5.4 33.73,2.7 46.94,0.37 7.63,-1.35 12.86,-2.75 19.3,-4.98 9.64,-3.33 22.03,-10 28.3,-18.04 3.93,-5.03 6.65,-9.22 5.56,-17.6 -2.19,5.71 -5.31,8.84 -9.16,11.93 -8.08,6.48 -1.73,2.72 -11.84,8.54 -22.24,12.79 -58.71,19.59 -84.6,11.18 -2.56,-0.83 -4.9,-1.82 -7.49,-3.05 -2.14,-1.01 -4.14,-2.64 -6.32,-3.65l0 -6.36z"/>
   <path class="fil5" d="M1056.9 732.34c-0.35,-4.38 0.38,-6.1 -2.19,-9.03 -6.22,-7.1 -27.06,-4.89 -27.04,-27.42 0,-3.38 -0.09,-7.88 1.57,-10.04 1.82,-2.36 4.41,-1.75 6.84,-3.44 -4.73,1.18 -7.13,2.67 -11.86,4.12l-24.96 7.16c-3.74,0.77 -9.54,2.13 -13.17,3.2l4.16 3.06c15.72,4.46 38.13,12.69 50.86,21.51 5.27,3.65 11.04,8.25 15.79,10.88z"/>
   <path class="fil8" d="M859.4 793.53c0.23,8.72 -8.94,29.18 0.63,29.8 1.05,0.06 2.15,-0.28 3.12,-0.66l11.22 -7.68c14.53,-10.4 20.31,-9.3 2.93,-21.1 -3.71,-2.52 -9.27,-6.5 -14.52,-5.93l-2.24 4.09c-0.07,0.12 -0.19,0.3 -0.26,0.41l-0.58 0.73c-0.05,0.07 -0.19,0.24 -0.3,0.34z"/>
   <path class="fil8" d="M1024.25 821.45c3.44,-8.33 -1.99,-28.48 -6.1,-34.82 -6.48,-0.71 -16.98,7.9 -21.68,12.02 -7.01,6.13 -1.99,6.72 11.79,16.09 5.54,3.77 11.3,8.9 15.99,6.71z"/>
   <path class="fil30" d="M887.05 436.03c-8.96,2.05 -17.39,12.19 -14.22,24.22 1.19,4.55 4.65,9.84 7.77,12.59 2.21,1.95 9.49,7.08 13.16,7.26l6.87 1.42c-3.11,-3.3 -9.7,-4.73 -14.22,-13.18 -8.66,-16.21 3.36,-26.32 18.63,-31.13 8.47,-2.68 22.16,-3.03 24.22,-4.21 -1.28,-0.93 -1.43,-1.16 -4.57,-1.42 -18.6,-1.51 -23.3,2.17 -37.64,4.45z"/>
   <path class="fil31" d="M838.23 525.41l2.77 1.85c11.85,5.27 38.62,8.72 51.43,4.14 16.23,-5.8 23.49,-24.34 23,-40.19l-13.24 -0.81c1.11,1.3 1.26,1.5 4.89,1.73 1.67,0.1 3.28,0.12 4.97,0.24 -0.12,3.45 -1.83,7.77 -2.98,10.75 -7.65,19.62 -24.33,24.71 -44.84,24.5 -4.38,-0.04 -9.55,-0.08 -13.85,-0.72 -3.27,-0.49 -8.39,-2.12 -12.15,-1.49z"/>
   <path class="fil32" d="M1017.03 880.05c-4.22,-1.89 -14.05,-1.93 -19.25,-1.93 -12.72,0.01 -29.81,5.57 -34.97,14.06 -3.18,5.25 1.55,9.8 6.94,7.02 7.46,-3.86 5.77,-6.33 22.63,-10.43l20.27 -4.85c3.72,-0.73 4.76,-0.16 4.38,-3.87z"/>
   <path class="fil13" d="M737.91 787.3c-1.73,3.7 -3.09,9.38 -5.34,13.76 -1.34,2.63 -5.84,12.01 -6.05,14.27l20.34 -2.59c2.84,-2.6 8.67,-2.06 12.36,-2.28 -0.21,-0.96 -14.46,-21.15 -17.51,-27.15 -2.43,1.41 -0.65,0.5 -2.48,2.63l-1.32 1.36z"/>
   <path class="fil33" d="M1494.12 1172.46c-15.01,8.28 -5.49,28.64 10.33,22.56 4.92,-1.89 10.22,-9.13 6.52,-16.34 -2.17,-4.23 -9.54,-10.24 -16.85,-6.22z"/>
   <path class="fil5" d="M954.93 943.26c-2.06,-0.82 -4.76,-0.93 -7.18,-1.88 -3.19,-1.23 -3.81,-2.53 -6.2,-3.26 -2.29,1.3 -2.83,2.56 -5.83,3.57 -2.03,0.69 -6.12,0.6 -7.09,2.08 -2.77,4.22 2.33,11.76 4.82,13.24 3.02,1.79 23.39,6.77 21.48,-13.75z"/>
   <path class="fil31" d="M975.95 526.83c-4.3,-0.72 -5.61,1.63 -10.3,1.02 -12.65,-1.67 -25.05,-13.55 -30.49,-24.47 -1.47,-2.97 -5.22,-11.14 -4.17,-14.31l0.83 -1.71 -2.81 0.61c-2.13,14.14 2.77,28.77 10.23,35.92 8.46,8.1 21.55,7.24 32.57,4.8 3.55,-0.79 3.07,-0.81 4.14,-1.86z"/>
   <path class="fil8" d="M990.75 850.6l-0.7 -0.01c-17.91,-0.12 -18.18,15.09 -0.72,15.52 17.56,0.44 20.68,-15.39 1.42,-15.51z"/>
   <path class="fil8" d="M884.76 852.65c-16.09,6.37 -0.13,17.66 13.86,13.28 16.12,-5.04 1.43,-19.33 -13.86,-13.28z"/>
   <path class="fil18" d="M837.47 1301.1c2.8,12.05 22.66,7.23 18.61,-5.94 -3.61,-11.69 -21.82,-7.83 -18.61,5.94z"/>
   <path class="fil18" d="M798.4 1313.38c5.52,-11.45 -12.28,-19.73 -17.39,-8.31 -5.92,13.22 12.22,19.05 17.39,8.31z"/>
   <path class="fil18" d="M685.37 1334.84c5.26,-12.29 -13.77,-18.24 -17.51,-6.71 -3.54,10.91 11.87,19.89 17.51,6.71z"/>
   <path class="fil10" d="M723.57 1322.19c1.97,11.71 19.62,10.24 18.6,-2.81 -0.95,-12.24 -20.83,-10.53 -18.6,2.81z"/>
   <path class="fil13" d="M993.75 1236.45c-12.3,4.04 -7.03,19.6 3.97,17.63 11.31,-2.03 8.27,-21.65 -3.97,-17.63z"/>
   <path class="fil22" d="M937.64 906.79c-14.75,2.99 -3.55,15.74 8.04,12.31 11.32,-3.35 8.3,-15.62 -8.04,-12.31z"/>
   <path class="fil18" d="M565.91 1670.17c-2.91,5.28 -10.51,11.23 -19.37,11.35 -9.86,0.14 -15.74,-6.84 -15.92,-16.29 -0.4,-20.96 0.43,-42.26 0.32,-63.28l1.19 -92.29c4.93,0.03 30.93,8.93 37.92,10.38 0.96,0.2 2.27,0.36 3.13,0.57l60.89 15.26c0.21,4.94 -4.6,13.74 -6.39,18.6 -6.58,17.92 -25.98,61.62 -35.83,78.06 -5.63,9.4 -19.49,33.09 -25.94,37.64zm-143.79 -306.34c2.72,17.93 8.62,43.83 10.93,60.27l10.33 62.29c0.35,0.63 0.26,-0.59 0.71,1.68 0.2,1.03 0.11,1.05 0.14,2.01 -1.29,2.27 0.16,0.99 -3.18,2.26l-12.95 3.8c-25.14,6.25 -30.14,6.52 -59.37,5.57 -10.11,-0.33 -53.08,-2.48 -61.56,-4.84 -4.85,-1.35 -14.66,-1.48 -20.45,-2.19l-38.92 -5.27c-6.31,-0.82 -11.89,-2.28 -18.35,-3.05 -7.38,-0.89 -13.26,-1.75 -20.23,-2.65 -3.74,-0.47 -72.77,-11.57 -75.08,-13.21 1.18,-2.84 34.86,-21.47 39.77,-24.7 11.41,-7.5 29.11,-16.7 41.52,-24.52 7.09,-4.47 17.26,-9 25.4,-14.05l25.47 -14.5c2.86,-1.62 5.33,-3.02 8.21,-4.44l25.83 -13.62c14.08,-8.05 60.07,-30.1 72.3,-32.79 9.27,-2.04 35.73,-8.21 45.3,-6.37l4.18 28.32zm92.95 26.27c4.39,-13.63 22.05,-23.39 35.46,-28.08 6.24,-2.18 10.13,-3.08 17.24,-4.73 20.16,-4.68 60.29,-4.18 66.71,14.22 1.09,8.38 -1.63,12.57 -5.56,17.6 -6.27,8.04 -18.66,14.71 -28.3,18.04 -6.44,2.23 -11.67,3.63 -19.3,4.98 -13.21,2.33 -33.76,5.03 -46.94,-0.37 -2.39,-0.98 -1.21,-0.69 -3.97,-1.42 -8.53,-2.25 -18.34,-10.37 -15.34,-20.24zm-36.71 -70.69c3.07,2.27 3.16,6.41 4.09,11.19 0.81,4.19 1.94,8.84 2.49,12.74 1.2,8.61 2.39,18.08 4.12,26.37 1.39,6.64 9.01,47.54 8.88,51.78 2.52,3 4.84,22.41 4.83,25.82 -0.03,14.56 11.28,30.33 0.9,47.9 -13.34,22.58 -46.27,14.96 -50.83,-11.28 -1.4,-8.08 -2.5,-17.28 -4.44,-25.07 -1.81,-7.24 -4.7,-16.69 -5.18,-25.61 0.47,-3.88 -5.03,-29.42 -6.01,-35.27 -0.93,-5.58 -1.97,-12.19 -3.11,-18.06 -0.87,-4.49 -3.16,-13.46 -3.28,-18.44 -0.61,-14.97 -12.14,-36.36 5.8,-51.54 20.28,-17.18 40.94,1.93 41.74,9.47zm653.41 -14.8c-2.59,15.99 -4.5,29.14 -12.82,43.85 -13.03,23.06 -34.5,44.39 -60.04,52.49 -7.14,2.26 -13.95,5.25 -21.75,6.14 -8.22,0.92 -18.26,2.42 -27.29,1.2 -18.16,-2.46 -29.4,-5.72 -43.31,-12.7 -63.96,-32.07 -85.74,-125.75 -22.43,-184.67 43.39,-40.39 120.33,-38.61 160.2,8.97 9.37,11.18 15.15,19.49 21.11,35.09 4.81,12.57 8.89,33.83 6.33,49.63zm137.36 -259.78c4.49,-0.06 29.67,5.53 34.65,7.22 6.08,2.05 9.76,3.09 16.25,4.74l45.99 15.73c10.67,2.98 20.09,7.53 29.64,12.06 21.03,9.97 34.61,16.55 54.59,28.27 7.83,4.59 44.1,26.31 50.21,32.55 3.71,1.48 18.54,13.27 22.79,16.79 7.85,6.5 15.05,11.89 22.11,17.95 1.75,1.51 3.16,3.1 5.1,4.71 6.66,5.49 9.91,12.07 5.75,21.06l-6.87 12.68c-10.52,19.47 -24.67,45.49 -37.74,62.84l-16.69 23.39c-7.64,11.33 -22.35,27.74 -31.54,38.03 -1.73,1.95 -2.33,3.37 -4.42,5.42l-19.68 20.4c-15.75,15.75 -35.49,33.18 -53,46.81 -4.05,3.16 -7.79,5.71 -11.65,8.75l-23.38 16.65c-6.91,4.26 -43.84,29.24 -51.52,29.21l-4.05 -7.81c-1.72,-1.65 -5.47,-9.76 -6.88,-12.22 -4.88,-8.59 -8.04,-16.88 -12.88,-25.79 -2.36,-4.37 -5.01,-8.59 -6.18,-13.8 -0.58,-1.87 -1.16,-2.6 -1.81,-4.3 -0.68,-1.79 -1.11,-3.72 -1.76,-5.42l-8.32 -18.84c-8.01,-20.23 -14.66,-40.35 -20.59,-61.65l-13.06 -55.98c-3.53,-11.12 -10.81,-68.42 -11.89,-83.42l-1.73 -40.03c-0.32,-17.29 -0.37,-37.5 1.25,-53.63 1.03,-10.33 2.31,-43.91 5.29,-50.4 2,-2.03 49.93,6.73 50.69,7.09 1.26,0.6 0.49,0.17 1.33,0.94zm-795.69 83.42c4.76,1.35 22.22,14.38 26.38,17.83 3.61,2.99 8.37,6.85 11.9,9.89 2.04,1.76 3.86,3.52 5.96,5.27 12.11,10.11 32.08,31.06 44.07,43.81 12.13,12.9 -3.38,2.68 -10.03,28.86 -3.53,13.92 2.56,4.5 -19.04,20.35l-34.55 26.59c-2.11,1.69 -3,3.51 -6.42,3.58 -1.8,-2.59 -2.6,-6.49 -3.96,-9.63 -1.44,-3.31 -2.23,-6.92 -3.56,-9.94 -2.68,-6.11 -6.13,-12.83 -7.67,-19.76 -4.59,-9.87 -9.98,-26.45 -14.36,-37.6 -4.89,-12.44 -9.65,-25.16 -14.64,-37.27 -2.48,-6.03 -4.53,-13.38 -7.07,-19.06 -2.57,-5.77 -6.29,-13.85 -2.5,-21.13 2.82,-5.41 8.32,-9.48 17.25,-9.08 4.41,0.19 15.65,5.11 18.24,7.29zm789.71 294.96c2.33,1.48 3.44,6.46 5.88,11.6l11.88 23.22c1.32,2.31 5.51,9.09 6.3,11.7 1.39,1.4 2.79,4.51 3.13,6.63 -4.77,3.17 -31.54,15.28 -38.91,18.63 -18.8,8.54 -64.18,24.33 -85.09,30.1 -20.62,5.69 -75.64,18.87 -94.76,20.6 -17.09,1.54 -33.17,5.06 -50.63,6.75 -45.12,4.35 -93.85,5.29 -140.55,4.41 -9.62,-0.18 -17.32,-1.41 -26.7,-1.58 -9.47,-0.18 -19.01,-0.56 -27.98,-1.39 -6.85,-0.63 -20.4,-0.72 -26.86,-2.03l-50.51 -6.61c-7.76,-1.03 -17.52,-2.36 -25.56,-3.46 -8.97,-1.22 -16.61,-2.87 -25.8,-3.96l-48.2 -9.32c-7.9,-1.92 -15.64,-3.36 -23.45,-5.24 -22.58,-5.45 -71.83,-16.73 -91.07,-24.29 -5.82,-2.29 -14.19,-9.42 -14.16,-14.88 -3.03,-2.01 -2.65,-7.43 -3.27,-11.36 -0.7,-4.5 -1.84,-8.13 -2.12,-13.47l-5.55 -30.27c-0.73,-5.22 -2.02,-9.9 -2.89,-15.23 -2.52,-15.28 -5.86,-29.78 -8.36,-46.41 -1.56,-10.36 -4.25,-21.21 -5.56,-31.85 -2.95,-23.89 -10.1,-31.67 16.96,-51.2 3.54,-2.55 7.05,-5.1 10.39,-7.95 4.43,-3.77 29.47,-22.4 32.47,-23.04 4.29,9.96 3.85,13.68 13.69,23.53 6.5,6.5 13.78,10.99 22.98,15.08 14.02,6.22 11.64,5.39 27.1,10.08 4.69,1.43 9.99,2.71 14.65,4.3 4.17,1.42 11.36,2.5 14.92,3.41 17.82,1.7 25.5,2.06 41.1,-4.27 15.69,-6.36 25.29,-22.86 32.74,-37.39 4.1,-8 6.84,-16.71 10.43,-24.89 1.13,-2.59 2.49,-4.83 3.53,-7.45l20.67 -49.87c4.74,-10.93 9.2,-22.06 13.74,-32.53 1.72,-3.97 12.13,-32.14 13.3,-33.15 3.72,-3.19 74.52,-31.22 82.57,-34.01 11.94,-4.16 41.08,-14.34 52.27,-17.34 24.3,-6.52 49.12,-14.16 74.28,-19.17 37.37,-7.45 85.33,-16.34 123.6,-16.33 7.51,0.12 14.66,-0.58 22.49,-0.66 28.28,-0.26 41.55,0.49 69.69,2.7 0.39,5.14 -0.76,9.34 -1.07,14.11 -0.39,6.3 -1.93,6.22 -2.1,11.89 -0.15,5.47 -1.07,8.92 -1.33,13.44 -2.64,47.13 -2.83,95.73 4.11,142.17 0.73,4.88 1.28,8.76 1.78,13.82l3.92 25.86c-1.4,0.67 -67.68,13.46 -70.08,13.41 -1.82,-2.72 -7.67,-37.03 -31.76,-60.19 -4.68,-4.5 -10.39,-10.39 -16.47,-14.42 -12.62,-8.36 -24.78,-15.34 -41.41,-19.69 -41.14,-10.74 -86.37,1.29 -116.16,29.9 -16.25,15.61 -28.31,34.19 -34.83,57.21 -2.23,7.9 -3.77,18.03 -4.4,26.41 -0.32,4.29 -0.52,10.87 0.17,14.98 3.12,18.6 1.78,12.14 -14.8,16.3 -22.94,5.76 -56.4,10.15 -79.68,15.28 -13.76,3.03 -50.63,10.75 -63.38,12.41l-95.62 18.15c-15.01,-26.3 -55.85,-23.66 -80.89,-18.06 -20.56,4.61 -59.98,22.81 -56.36,49.76 1.76,13.1 17.07,21.99 28.49,24.3 29.05,5.88 63.97,0.11 88.24,-15.31 10.23,-6.49 14.22,-11.5 19.57,-20.43 1.89,-3.17 1.95,-6.59 2.91,-10.48 21.74,-3.52 42.16,-8.59 63.6,-12.14 10.4,-1.73 21.92,-3.69 32.01,-6.06 10.77,-2.52 21.36,-3.61 31.97,-6.06l31.77 -6.16c10.58,-2.11 21.15,-4.36 32.03,-6.04 10.52,-1.62 21.03,-4.57 31.66,-6.2 5.04,-0.77 11.28,-1.86 16.12,-2.98 4.77,-1.1 10.77,-3.11 16.14,-2.59 0.84,1.49 2.85,8.23 3.61,10.19 1.34,3.46 2.66,7.12 4.27,10.59 9.12,19.75 23.27,34.73 40.66,47.93 20.28,15.39 61.82,28.03 93.91,19.59 17.8,-4.69 25.55,-5.89 42.44,-16.72 9.06,-5.81 17.05,-12.42 24.14,-20.12 14.22,-15.43 19.66,-24.44 27.51,-46.39 2.75,-7.69 4.53,-14.99 5.63,-23.65 1.23,-9.74 -0.13,-19.5 0.86,-28.75l53.07 -10.27c1.63,-0.37 15.7,-3.88 17.29,-2.12l9.95 41.21c2.11,6.99 3.28,13.33 5.27,20.29 0.8,2.81 2.07,6.04 3.08,9.41 4.55,15.13 10.92,33.11 16.66,48.01 2.18,5.66 14.75,34.1 14.72,36.07zm-651.6 -458.95c0.52,-3.57 2.89,-16.29 5.39,-16.7 0.17,-0.03 0.44,-0.13 0.65,-0.15 0.27,-0.03 -1.07,-1.07 3,0.36 2.55,0.9 3.95,2.53 9.22,4.23 4.73,1.54 8.92,3.6 13.26,5.06 2.74,0.93 26.87,8.24 26.97,8.32 17.9,1.51 20.7,5.48 50.81,6.09 9.37,0.18 18.48,0.04 27.39,-0.78 5.1,-0.47 20.79,-3.25 24.62,-2.32 9.36,24.94 36.52,49.5 37.62,52.68 0.63,0.26 1.1,-0.8 0.56,0.65 3.37,1.14 6.62,4.87 9.13,7.17 6.82,6.23 18.4,13.74 26.48,18.45 8.73,5.1 25.85,12.84 36.29,16.34 0.96,0.32 2.09,0.58 2.66,0.85 1.84,0.87 1.28,0.16 2.25,1.81 -1.02,0.99 -0.19,0.44 -1.94,1.39l-15.35 4.81c0.11,-0.2 0.02,-1.34 0.17,0.04 0,0.01 -0.02,0.17 -0.02,0.18l-0.15 0.57c-4.62,0.85 -28.05,10.16 -33.17,12.46l-21.77 8.53c-3.47,1.52 -7.48,2.58 -10.81,4.07 -4.16,1.87 -16.88,8.58 -19.49,8.9 -0.41,-3.65 1.53,-3.26 0.87,-8.6 -4.22,-0.58 -4.01,-0.02 -5.53,2.99l-8.47 16.02c-6.42,11.31 -21.87,44.68 -26.2,56.04l-5.25 10.71c-1.12,5.4 -27.04,61.95 -32.04,73.46 -11.09,25.52 -24.87,41.08 -53.85,38.26l-10.17 -1.27c-1.4,-0.66 -0.51,-0.15 -1.44,-1.05 -6.6,0.82 -34.43,-9.18 -41.25,-11.68 -12.98,-4.76 -24.94,-12.02 -31.53,-21.83 -7.72,-11.5 -9.12,-29.25 3.55,-37.12 15.63,-9.72 34.29,-1.71 47.13,-7 0.58,-9.14 -12.36,-7.33 -17.94,-11.4l6.34 -53.32c2.61,-18.94 4.37,-40.21 6.12,-60.53 0.89,-10.42 1.32,-20.02 2.42,-30.67 0.31,-3.02 2.29,-13.71 -0.87,-15.57 -2.24,-1.31 -4.83,0.22 -5.53,2.3 -1.12,3.3 0.5,4.51 -1.88,6.46 -9.48,-17.03 -4.96,-73.72 1.75,-89.21zm-24.25 -20.24c-5.51,0 -1.1,-3.52 -0.7,-7.03 0.35,-2.98 0,-8.67 0,-11.95 4.37,2.31 5,4.87 8.36,7.1 2.52,1.67 7.46,4.24 7.81,8.36 -6.36,0 -3.25,1.1 -7.2,1.94 -1.63,0.34 -3.01,0.03 -4.64,0.28 -3.65,0.56 -0.85,1.3 -3.63,1.3zm5.97 96.36l2.07 10.94c1.52,5.43 2.52,10.58 4.64,14.98 1.5,3.1 5.73,10.87 5.51,14.08 -7.43,4 -36.6,6.14 -46.3,6.39 -33.18,0.87 -60.09,-3.29 -89.54,-15.97 -22.81,-9.82 -44.45,-26.33 -59.55,-45.84 -17.48,-22.6 -27.17,-45.1 -30.41,-74.95 -1.88,-17.41 1.67,-31.23 6.24,-44.81 2.99,-11.65 13.42,-26.78 20.27,-34.75 12.88,-14.98 29.84,-28.01 49.3,-33.19 13.93,-3.71 33.54,-6.2 48.17,-0.82 5.79,2.13 14.17,3.56 18.97,7.25 10.93,3.11 29.78,22.14 34.94,30.91 8.59,14.63 15.29,31.61 15.34,49.02 0.05,20.7 -5.1,36.84 -15.72,49.33 -10.79,12.69 -28.78,15.69 -40.61,5.93 -5.34,-4.4 -7.82,0.49 -4.93,4.95 7.11,10.97 26.27,13.22 40.25,8.39 8.95,-3.09 19.17,-13.55 23.68,-21.85 1.4,-2.58 3.19,-7.96 4.69,-10.13 2.82,-1.35 14.73,-3.84 18.17,-4.11 -0.03,4.61 -0.41,6.95 -1.29,10.99 -0.66,3.04 -1.82,5.83 -2.24,8.71 -2.94,20.27 -4.38,44.68 -1.65,64.55zm459.49 -138.81c3.33,7.7 -1.58,29.42 -4.52,35.95 -4.38,9.69 -10.48,17.56 -18.29,23.92 -7.95,6.47 -17.21,10.83 -28.38,13.8 -10.72,2.86 -24.77,4.86 -36.21,6.04 -12.83,1.31 -26.9,2.08 -40.7,1.34 -15.33,-0.82 -39.05,-4.68 -53.41,-9.78 -5.35,-1.9 -9.99,-4.45 -13.88,-7.22 -4.69,-3.34 -18.68,-16.54 -19.59,-22.31l14.7 -13.84c6.01,-6.41 9.73,-15.14 11.33,-17.01 0.97,-4.28 3.08,-7.72 4.17,-12.44 0.9,-3.89 0.68,-13.15 2.41,-13.76l1.61 -0.47c0.57,-0.06 1.24,0.05 1.81,0.13 0.61,0.09 2.51,0.53 3.57,0.76l20.86 5.15c12.69,4.16 13.72,8.58 17.47,8.98 6.96,0.73 11.25,-10.76 -12.85,-19.18 -9.37,-3.27 -20.9,-2.53 -32.3,-2.4l-1.67 -3.44c-0.45,-1.43 -0.45,-1.9 -0.78,-3.31 -3.71,-15.91 -13.15,-22.93 -12.17,-27.32 1.24,-5.52 6.47,-7.7 -4.16,-8.12 -0.43,-8.41 1.47,-15.33 2.35,-23.02 0.26,-2.32 2.47,-16.53 3.82,-18.93 0.86,-1.52 0.48,-0.88 1.45,-1.56 -0.51,-3.08 1.59,-6.7 3.25,-9.19 4.92,0.14 12.99,5.75 16.2,8.03 24.29,17.18 8.3,6.94 9.89,18.9 7.6,0.96 17.37,-4.46 24.61,-6.4 8.14,-2.17 17.89,-3.58 27.49,-3.72 25.77,-0.37 40.23,10.6 50.86,9.53 0.8,-1.68 1.5,-2.21 0.17,-4.14 -0.97,-1.4 -1.97,-1.27 -3.05,-3.81 1.09,-2.02 0.66,-1.63 3.33,-3.57 6.57,-4.77 18.55,-15.78 26.1,-16.15 7.13,12.48 12.79,37.27 11.65,52.55 -3.39,-0.45 -1.13,-1.56 -6.21,-1.25 -1.29,7.4 4.27,12.3 7.37,16.66 3.05,4.28 6.66,9.4 9.29,14.62 4.97,9.84 11.47,23.42 12.41,35.98zm-236.71 -84.08c0.96,-6.74 15.83,-25.61 20.21,-30.1 12.66,-12.95 25.8,-24.47 43,-32.27 5.12,-2.32 11.97,-5.79 16.94,-7.36 53.21,-16.79 107.23,-4.21 146.73,35.09l8.45 9.16c2.9,3.29 5.19,6.62 7.6,9.97 4.72,6.56 9.15,14.61 12.73,22.41 7.44,16.21 12.94,35.26 12.93,56.36 0,19.6 -2.5,39.64 -11.15,56.63 -0.9,1.77 -1.64,3.91 -2.5,5.92 -9.73,22.52 -28.36,43.62 -48.64,57.62 -12.37,8.54 -21.93,12.46 -35.29,17.5 -26.91,10.14 -60.8,9.45 -87.62,1.29 -3.57,-1.08 -5.89,-1.97 -8.95,-3.52 -2.75,-1.39 -5.91,-2.09 -8.67,-3.37 -15.67,-7.32 -30.98,-18.6 -42.46,-30.55 -4.78,-4.97 -20.41,-21.91 -20.14,-28.41 2.01,-1.37 6.64,-3.98 9.17,-4.15 2.4,2.64 5.04,7.64 7.83,11.1 7.83,9.71 21.05,18.82 32.99,23.16 8.22,2.99 21.29,5.25 30.41,6.94 31.74,5.87 68.21,2.05 98.85,-3.85 25.18,-4.85 43.03,-16.81 55.4,-37.6 17.95,-30.15 8.59,-68.69 -8.77,-94.97 -2.35,-3.58 -4.72,-5.12 -4.78,-10.96 -0.19,-19.83 -4.06,-48.6 -12.89,-64.02 -5.71,-9.99 -12.77,-6.89 -20.83,-2.43 -7.54,4.16 -12.32,7.86 -18.41,12.56 -14.56,11.23 -8.12,9.11 -19.69,6.2 -22.38,-5.62 -26.37,-6.1 -49.48,-2.51 -23.56,3.66 -7.71,10.37 -31.1,-6.56 -22.38,-16.2 -30.97,-19.08 -39.57,5.6 -3.82,10.97 -5.87,26.06 -6.4,39.51 -3.94,-0.46 -9.42,-5.35 -12.7,-7.48 -4,-2.6 -9.02,-4 -11.77,-5.81 -0.93,-0.61 -0.8,-0.55 -1.43,-1.1zm-87.48 -46.32c-1,10.29 -13.44,37.42 -18.18,45.03 -14.9,23.93 15.84,10.74 38.16,9.64 28.26,-1.88 52.45,-2.19 73.25,9.55 15.77,8.91 33.88,26.63 34.38,49.58 0.54,24.86 -16.62,41.87 -32.87,51.83 -13.38,8.19 -47.78,19.32 -64.27,19.32 -6.96,3.42 -45.62,2.28 -55.52,1.1 -9.98,-1.19 -17.24,-2.26 -26.19,-3.72 -20.67,-3.37 -64.62,-20.22 -78.84,-37.53 -3.2,-3.89 -9.78,-13.11 -10.08,-18.53 -2.16,-0.72 -1.42,-2.75 -2.21,-5.73 -3.71,-14.06 -3.02,-31.92 -1.28,-45.91 3.55,-28.56 12.37,-63.08 25.25,-87.76 3.51,-6.73 17.24,-32.39 21.03,-34.9 2.07,-5.09 7.92,-10.69 10.76,-15.45 5.27,-0.39 17.64,2.16 22.97,3.28 11.12,2.34 68.67,7.49 69.29,8.11 2.87,2.86 -1.76,46.06 -5.65,52.09zm63.34 41.37c-9.56,-1.2 -13.13,0.7 -12.16,-3.63 1.09,-4.87 16.76,-29.51 19.36,-32.66 13.31,-16.2 24.57,-28.38 42.17,-40.09 35.43,-23.56 43.71,-21.64 82.35,-27.41 7.94,-1.19 15.45,-3.47 24.24,-3.34 18.72,0.29 31.52,3.54 47.53,7.72 18.98,4.97 56.14,25.77 68.56,40.79l6.41 6.23c25.56,22.17 47.69,73.42 49.12,111.47 0.86,22.96 -1.8,50.08 -9.23,70.48 -2.16,5.95 -5.03,12.91 -8.03,18.51 -3.33,6.19 -5.71,11.32 -9.44,17.32 -8.29,13.3 -37.98,50.38 -54.35,52.69 -7.67,1.09 -13.76,2.81 -22.24,3.7 -5.39,1.83 -12.41,2.43 -18.87,3.58l-70.09 17.01c-4.17,1.58 -12.53,4.58 -17.63,3.38 -13.18,-3.12 -22.59,-4.74 -34.06,-9.63 -30.9,-13.19 -55.14,-30.65 -74.92,-56.53 -3.86,-5.05 -16.23,-21.92 -16.45,-26.97 1.69,-0.68 22.91,-6.27 23.82,-6.25 2.29,2.76 4.21,6.95 6.48,10.26 15.97,23.34 35.26,39.71 61.26,52.66 37.7,18.78 94.81,20.88 133.98,-1.15 11.92,-6.7 6.85,-3.05 20.44,-11.9 12.6,-8.21 23.86,-20.06 33.33,-32.1 55.63,-70.72 36.04,-175.86 -39.6,-223.26 -6.6,-4.13 -14.75,-8.66 -21.35,-11.54 -41.64,-18.14 -94.33,-15.58 -133.98,6.18 -19.94,10.95 -38.63,27.79 -51.74,45.9 -4.56,6.29 -7.8,12.47 -12.18,20.13 -4.71,0.26 -8.77,-0.88 -12.73,-1.55zm-45.05 0.2l-20.34 2.59c0.21,-2.26 4.71,-11.64 6.05,-14.27 2.25,-4.38 3.61,-10.06 5.34,-13.76 0.92,-4.92 3.11,-11.25 4.36,-16.04l3.18 -14.93c2.41,-11.58 1.93,-23.55 2.47,-36.25 3.55,-1.1 42.73,-0.06 50.24,-0.15 13.63,-0.17 38.51,-2.03 48.72,-1.76 -1.1,2.53 -0.69,1.6 -3.12,2.95 -17.41,9.7 -37.06,27.57 -49.59,43.16 -1.67,2.08 -3.12,4.11 -4.58,5.99 -3.55,4.56 -5.96,8.61 -8.72,13.11l-15.27 28.05 -18.74 1.31zm352.46 -64.13c-1.05,2.18 -0.33,0.99 -1.56,2.28 -0.5,0.53 -1.03,0.79 -1.7,1.21 -12.38,7.88 -9.4,9.26 -17.72,-0.4 -7.42,-8.61 -16.02,-13.76 -21.44,-19.36 -4.75,-2.63 -10.52,-7.23 -15.79,-10.88 -12.73,-8.82 -35.14,-17.05 -50.86,-21.51l-4.16 -3.06c3.63,-1.07 9.43,-2.43 13.17,-3.2l24.96 -7.16c4.73,-1.45 7.13,-2.94 11.86,-4.12 13.1,-3.47 40.32,-18.78 52.76,-27.64 3.27,-2.33 3.24,-3.29 7.33,-4.85 0.15,-1.42 5.73,-5.28 7.59,-6.91 3,-2.61 5.75,-5.03 8.17,-7.26 1.54,-1.43 2.32,-1.96 4.01,-3.79 4.11,-4.43 4.88,-4.37 13.3,2.07 10.94,8.37 18.28,25.01 17.98,42.2 -0.3,17.73 -9.33,32.27 -17.28,43.61 -4.33,6.17 -25.95,29.27 -30.62,28.77zm32.75 -438.92c2.93,2.19 11.83,23.47 14.47,28.6 2.24,4.33 3.9,10.61 5.99,15.15 2.4,5.22 3.52,10.34 5.65,15.78l13.61 52.5c1.45,10.02 1.91,20.06 3.08,30.77 1.25,11.47 -0.69,20.55 -1,31.14 -0.31,10.69 -2.47,20.01 -4.68,28.84l-3.59 13.22c-2.58,12.05 -3.65,10.97 -6.23,18.44 -1.69,4.9 -16.94,35.95 -19.97,38.39 -2.42,7.42 -23.32,30.8 -29.6,37.01 -11.49,11.34 -22.27,20.04 -36.95,29.83 -27.33,18.24 -64.34,30.23 -97.21,36.26 -9.19,1.69 -18.91,3.73 -27.76,5.84 -4.83,1.14 -10.04,1.23 -14.71,2.41 -4.63,1.16 -9.04,1.57 -13.68,2.32 -54,8.65 -101.95,10.96 -157.17,10.43 -11.08,-0.1 -20.53,-1 -31.63,-1.43 -23.79,-0.92 -65.7,-6.81 -88.91,-11.74 -29.69,-6.3 -50.39,-9.82 -78.46,-21.27l-11.55 -5.27c-17.64,-8.16 -16.64,-9.03 -31.79,-18.24 -23.6,-14.35 -50.12,-46.08 -64.43,-69.17 -16.44,-26.53 -31.93,-70.55 -31.64,-102.22l0.1 -1.73 -0.76 -5.28c-0.64,-21.93 1.54,-49.21 6.04,-69.74 8.78,-40.01 24.94,-80.4 45.24,-115.45 8.19,-14.15 14.22,-23.81 23.54,-36.92 2.58,-3.62 6.02,-10 8.87,-10.37 0.9,12.16 0.64,23.27 2.1,35.32 0.66,5.43 1.54,11.73 8.63,10.4 5.86,-1.09 4.91,-7.72 4.14,-14.06 -0.44,-3.63 -4.37,-66.55 -1.14,-71.4 -3.84,-15.59 7.17,-87.7 11.69,-109.1 1.18,-5.63 3.52,-12.76 5.08,-18.51 3.07,-11.37 8.43,-25.66 15.2,-32.72 6.25,-6.52 8.7,-5.67 19,-3.77 30.31,5.58 57.46,19.78 82.2,37.3 12.11,8.57 17.84,14.98 26.18,21.2 4.69,3.55 14.49,14.47 19.51,19.53 3,3.02 4.54,3.74 10.07,2.36 5.67,-6.57 0.64,-8.6 -1.67,-13 -2.45,-2.45 -3.95,-3.06 -4.65,-5.74 2.38,-2.09 27.74,-8.11 33.03,-9.03 41.3,-7.19 73.12,-8.53 114.85,0.31 28.41,6.03 38.6,10.96 64.18,20.22 13.53,4.89 42.42,20.23 55.04,28.56 25.95,17.14 36.96,25.53 59.84,45.58 13.51,11.85 19.36,18.12 31.78,30.78 14.03,14.32 27,31.16 38.22,46.12 5.69,7.58 30.49,44.52 31.85,51.55zm-78.34 -143.81c0.35,4.51 3.07,17.17 1.68,20.27 -3.01,-0.69 -13.99,-13.09 -17.7,-15.88l-16.01 -13.49c-1.73,-1.42 -1.08,-0.66 -2.25,-2.3 -0.92,-0.43 -10.53,-7.59 -11.53,-8.58 -2.93,-2.89 -8.25,-6.26 -11.28,-8.39 -7.78,-5.48 -16.29,-10.37 -23.39,-15.69 -2.8,-0.87 -7.5,-3.88 -9.42,-5 -11.63,-6.83 -32.38,-17.34 -44.54,-22.17 -2.58,-1.02 -17.78,-6.17 -19.12,-7.83 -2.2,-0.14 -5.79,-1.29 -7.78,-2.47 0.3,-3.75 7.35,-9.75 9.94,-12.5 17.2,-18.18 29.18,-27.1 49.86,-40.1 9.72,-6.1 41.8,-18.76 49.65,-17.45 19.43,3.27 37.66,75.22 41.65,93.06 3.2,14.34 8.92,41.72 10.24,58.52zm-176.85 -85.75c-11.1,-5.87 -27.46,-6.99 -39.98,-9.21 -44.79,-7.95 -86.74,-4.06 -130.14,9.18 -4.4,0.56 -11.27,3.55 -13.32,3.55 -3.84,0 -4.62,-2.56 -6.85,-4.4 -2.01,-1.65 -1.53,-0.71 -3.48,-2.14 -8.52,-6.26 -16.42,-13.44 -25.62,-20.07 -7.43,-4.6 -21.3,-14.55 -28.57,-17.83l-35.74 -14.16c-1.63,-0.56 -19.91,-5.37 -19.93,-5.37 -15.84,0 -20.12,-2.53 -27.73,6.02 -3.74,4.21 -6.47,5.78 -9.23,11.15l-5.88 11.69c-3.16,5.68 -3.93,13.39 -6.87,19.14 -1.94,3.8 -1.24,10.02 -3.31,14.26 -1.34,2.75 -0.69,-0.88 -1.08,3.13 -0.16,1.63 0.21,3.1 -0.24,4.69 -0.73,2.66 -0.66,0.55 -1.48,2.73l-1.82 11.54c0.09,6.64 -0.34,3.26 -1.71,6.72 -0.97,2.46 0.03,5.81 -0.63,8.52l-1.19 7.24c0.06,4.03 0.51,5.17 -0.98,8.15 -1.36,2.71 -0.67,-0.84 -1.11,3.11 -0.12,0.99 -0.02,3.11 -0.01,4.21 0.04,4.54 0.91,13.23 -0.19,17.38 -0.81,3.06 -1.95,1.33 -1.95,7.19 0,9.11 -0.74,6.16 -1.35,11.3 -0.92,7.82 1.93,35.07 -0.87,39.2 -0.56,0.82 -3.29,3.18 -4.26,4.17 -2.86,2.89 -1.85,4.1 -8.07,10.21 -2.52,2.47 -2.05,2.32 -4,5.14l-7.01 10.56c-1.21,2.48 -0.17,0.69 -1.64,2.58l-8.42 13.36c-1.93,2.3 -2.62,1.85 -4.13,5.01 -0.89,1.86 -1.68,4.23 -2.77,5.67 -3.87,5.1 -3.54,5.37 -6.53,11.05l-15.13 29.85c-0.05,0.17 -0.12,0.35 -0.17,0.53 -2.45,7.68 -4.57,10.58 -6.84,17.76 -0.83,2.6 -2.59,4.85 -3.39,7.86l-7.88 23.05c-0.05,0.18 -0.11,0.36 -0.17,0.53l-0.37 1.03c-2.93,9.29 -2.44,8.95 -4.31,17.49 -9.4,42.99 -11.05,48.68 -11.05,97.9 0,17.94 11.01,53.96 17.16,71.4 0.46,0.87 0.71,1.32 1.24,2.27 1.89,3.42 2.06,6.57 3.99,10.07 2.85,5.16 4.54,11.16 8.05,15.85 3.13,4.19 2.87,5.08 5,8.35 14.09,20.19 41.94,57.32 62.77,67.97 4.05,2.08 4.31,3.7 7.7,5.66 27.88,17.36 50.83,28.11 81.71,34.97 4.16,0.48 23.7,5.79 28.16,6.98 0,4.98 -1.55,4.22 -4.26,9.1 -1.03,1.86 -1.89,2.14 -3.32,3.7 -2.15,2.35 -2.86,5.97 -4.92,8.44l-2.67 4.37c-1.33,2.57 -3.54,4.77 -5.36,8.69 -1.39,2.98 -2.81,5.68 -4.48,8.88 -0.93,1.78 -1.52,3.36 -2.27,4.75 -0.88,1.63 -0.65,0.99 -1.33,2.19l-16.67 44.48c-0.51,1.85 -0.22,1.24 -0.41,3.11 -0.43,4.44 -1.5,2.87 -2.17,8.37 -0.45,3.68 -0.13,0.88 -0.75,2.77l-0.57 6.45c0.09,5.54 -1.96,5.71 -2.12,11.24 -0.17,5.89 -2.22,3.96 -2.13,11.93 0.1,9 -1.12,7.35 -1.43,11.93 -0.29,4.3 0.85,10.23 -0.67,13.38 -2.27,-1.67 -0.94,-2.17 -2.99,-4.74l-10.89 -12.31c-1.73,-1.75 -1.95,-2.2 -4.17,-3.56 -3.32,-2.03 -4.96,-5.23 -8.46,-7 -3.63,-1.82 -5.34,-4.56 -9.18,-6.28l-5.98 -3.16c-3.95,-1.8 -7.66,-4.61 -11.85,-5.72l-3.32 -0.9c-0.17,-0.05 -0.35,-0.13 -0.52,-0.18l-5.22 -1.81c-3.21,-1.43 -3.48,-0.24 -6.92,-0.82 -3.04,-0.51 -2.13,-2.02 -5.7,-2.02l-22.5 0c-3.32,0 -2.6,2.12 -11.28,2.08 -5.38,-0.03 -3.9,1.46 -8.43,2.1 -1.45,0.2 -1.56,-0.02 -3.16,0.36 -0.02,0 -1.88,0.66 -2.07,0.74 -2.18,0.98 -1.08,0.61 -2.23,1.28l-18.34 9.07c-2.7,2.13 -1.93,0.36 -4.58,2.45 -1.31,1.03 -2.11,2.45 -3.54,3.5 -2.24,1.65 -1.83,0.52 -4.19,2.83 -1.69,1.65 -1.44,1.86 -3.45,2.88 -4.52,2.29 -11.14,8.79 -14.46,12.96 -1.63,2.05 -1.07,2.6 -2.48,4.54l-10.83 14.48c-0.73,1.03 -0.2,0.24 -0.74,1.37 -0.09,0.19 -0.31,0.8 -0.4,1 -0.51,1.13 -0.1,0.35 -0.7,1.41l-9.68 21.24c-0.29,0.77 -1.49,4.37 -1.72,5.32 -0.38,1.61 -0.16,1.66 -0.37,3.14 -0.65,4.54 -2.1,3.07 -2.11,8.43 -0.01,2.31 0.15,4.83 0.09,7.12 -0.14,4.96 -1.46,3.27 -1.46,5.57l0 24.61c0,1.35 1.41,2.82 1.38,7.75 -0.03,6.28 1.31,3.28 2.04,7.81 0.86,5.36 2.01,6.76 3.37,11.39 0.6,2.03 0.21,1.98 0.96,3.96l18.05 34.66c1.25,1.62 0.85,1.57 1.82,3.11l4.36 5.48c2.38,4.27 23.06,24.68 26.18,27.24l31.1 19.5c0.16,0.07 0.35,0.13 0.51,0.2l26.46 11.49c2.63,0.79 5.21,0.7 7.89,1.95l5.68 2.05c2.4,1.25 -0.72,0.93 3.73,1.19 4.79,0.28 4.26,1.17 8.42,1.42 6.66,0.39 2.98,-1.23 8.5,1.34 3.66,1.7 9.58,0.1 13.93,0.83 3.57,0.59 0.88,1.32 3.61,1.32l33.73 0c1.47,0 3.16,-1.46 7,-1.44 15.82,0.08 9.23,-2.03 16.18,-2.1 7.14,-0.07 4.48,-1.38 11.97,-1.38 0,4.74 -1.04,3.22 -1.4,7.04 -0.24,2.55 0.43,5.81 -0.21,8.22 -1.56,5.89 -1.57,-0.04 -1.86,10.79 -0.02,0.66 -0.03,1.32 -0.15,1.96 -0.28,1.58 -0.34,1.17 -0.5,1.61l-0.76 7.68c0.04,8.43 -2,-0.79 -2.11,14.76 -0.04,5.82 -1.16,2.99 -1.48,7.65 -0.34,5.02 1.21,12.23 -0.56,16.31 -1.59,3.66 -1.52,1.26 -1.51,6.93 0.03,6.92 -2.23,2.89 -2.09,15.48l-0.79 6.24c-2.32,7.57 -0.64,4.59 -9.09,5.07l-2.72 0.1c-2.02,-0.19 -9.22,-7.97 -10.92,-9.72 -1.54,-1.58 -1.79,-3.3 -9.36,-11.03 -2.67,-2.73 -5.56,-3.6 -7.34,-6.72 -1.05,-1.85 -1.18,-1.85 -2.85,-3.48 -1.35,-1.32 -2.18,-2.17 -3.52,-3.51l-13.33 -13.37c-2.85,-2.54 -3.82,-2.36 -7.76,-6.31 -6.19,-6.2 -4.5,-4.69 -10.78,-8.9 -2.74,-1.84 -4.15,-4.73 -7.12,-6.23 -3.88,-1.95 -4.72,-4.05 -8.05,-6.01 -1.79,-1.06 -0.19,0.22 -2.13,-1.38 -2.42,-1.98 -3.41,-1.63 -6.01,-3.83 -2.01,-1.7 -1.71,-1.5 -4.22,-2.81l-18.35 -9.06c-2.76,-1.43 -1.4,-1.17 -5.72,-1.31 -5.25,-0.18 -3.32,-1.41 -8.43,-1.41 -2.46,0 -0.2,0.81 -4.27,1.35 -3.75,0.5 -1.94,-0.41 -5.06,1.27l-4.08 2.24c-5.52,2.71 -5.82,5.31 -9.27,9.71 -2.26,2.88 -0.47,1.32 -1.64,4.68 -2.17,6.22 -1.68,1.25 -1.68,10.97 0,2.95 1.56,4.45 2.22,6.92 1.29,4.86 4.56,10.23 5.51,14.16 0.55,2.25 -0.01,0.75 0.79,2.73 0.52,1.29 1.94,3.64 2.31,4.72 1.01,2.93 -0.11,1.83 1.49,4.84l7.47 18.53c1.48,3.73 0.4,4.67 3.25,10.11l2.96 6.88c0.57,2.35 -0.18,0.51 0.83,2.69 0.02,0.06 1.13,2.03 1.25,2.26 0.11,0.18 0.41,0.7 0.51,0.9l3.17 9.48c0.05,0.19 0.09,0.37 0.14,0.56l0.98 3.24c0.54,2.16 -0.28,0.81 0.77,2.74 1.02,1.86 2.24,2.24 2.84,4.19 0.33,1.03 0.16,0.99 0.59,2.23l4.84 12.03c0.38,1.4 0.17,1.45 0.67,2.84l8.59 21.64c1.09,4.32 7.15,17.22 7.15,19.55 0,2.85 -3.24,5.21 -3.51,8.43 -2.7,-0.72 -0.01,0.16 -1.9,-0.91l-2.21 -1.31c-2.96,-1.65 -5.46,-4 -8.89,-5.16l-20.04 -1.75c-3.28,0 -1.1,0.18 -2.82,0.69 -5.21,1.53 -3.84,0.91 -7.93,4.02 -1.69,1.29 -3.39,1.45 -5.31,2.42 -2.81,1.41 -4.43,4.13 -5.92,6.73l-8.94 18.47c-4.47,0 -8.92,0 -13.39,-0.03 -7.75,-0.05 -4.46,2.17 -11.2,2.16 -3.54,-0.01 -3.81,-0.04 -6.5,1.22 -3.46,1.62 -6.52,2.27 -10.39,2.27 -4.54,-0.01 -2.75,-0.16 -5.76,1.26l-10.65 2.71c-3.5,1.08 -6.06,3.29 -9.48,4.58 -2.12,0.8 -2.55,0.51 -4.75,1.57l-21.94 10.39c-3.39,0.87 -7.45,3.21 -10.58,4.89l-8.42 4.93c-0.71,0.54 -1.37,0.94 -2.14,1.37l-3.39 1.54c-1.12,0.51 -0.34,0.11 -1.39,0.71l-5.14 2.6c-0.16,0.06 -0.35,0.13 -0.5,0.2l-3.19 1.73c-0.19,0.1 -0.76,0.36 -0.96,0.45 -0.14,0.07 -0.33,0.16 -0.47,0.23l-8.09 3.86c-3.86,1.93 -4.86,3.57 -10.6,6.26 -10.79,5.06 -12.24,7.23 -19.43,10.8l-4.69 2.34c-1.85,1.03 -0.33,-0.01 -2.12,1.39 -5.05,3.93 -12.73,5.57 -17.6,9.82 -1.44,1.26 -2.1,1.58 -3.91,2.41 -5.07,2.36 -8.56,5.5 -13.41,7.68 -0.15,0.07 -0.33,0.15 -0.49,0.22 -0.15,0.06 -0.34,0.13 -0.5,0.2 -2.9,1.23 -4.37,3.16 -7.39,4.56 -5.23,2.43 -8.83,5.69 -13.89,7.89 -2.92,1.26 -4.52,3.06 -7.4,4.56 -1.47,0.77 -3.2,1.33 -4.62,2.4l-8.29 5.06c-3.51,2.08 -1.32,1.44 -6.55,4l-14.55 9.34c-2.16,0.99 -3.12,1.55 -4.72,2.32l-8.13 5.22c-5.08,4.53 -7.38,8.64 -4.54,14.79l0.45 0.95c1.23,2.29 2.66,2.93 5.22,3.91 2.3,0.88 1.11,0.28 3.59,0.63 3.16,0.46 0.94,-0.01 3.16,1.07 3.81,1.85 3.27,0.42 7.32,1.1 2.71,0.46 0.87,0.52 3.15,1.07 1.47,0.35 2.48,0.23 4,0.22 5.75,-0.01 3.17,0.5 6.69,1.74 2.5,0.88 5.39,-0.01 7.99,0.45 3.27,0.59 1.6,1.88 6.37,2.06l7.46 0.98c2.84,0.86 5.22,-0.01 7.95,0.48 4.18,0.74 0.84,1.75 10.67,1.99l11.23 1.41c4.74,0.25 2.26,1.51 6.36,2.08 4.28,0.59 2.72,-0.33 7.36,1.07 4.69,1.42 11.24,-0.72 15.47,1.4 2.71,1.35 -0.84,0.67 3.11,1.11 1.06,0.12 3.09,0 4.24,-0.02 8.95,-0.15 -0.03,1.69 14.78,2.08 5.4,0.15 2.13,1.16 6.96,1.49 2.51,0.17 6.08,-0.33 8.47,-0.04 4.87,0.58 0.74,1.81 6.27,2.16 2.55,0.16 5.97,-0.32 8.48,-0.04 3.26,0.36 2.81,1.61 6.39,2.04 2.41,0.3 5.89,0 8.42,0.02 5.12,0.04 3.65,1.56 15.43,1.44 13.89,-0.15 -2.09,2.34 23.2,2.1 4.62,-0.05 6.59,1.42 7.71,1.42l54.12 0c2.04,0 2.07,-1.02 4.93,-1.4 4.79,-0.63 1.24,-0.26 4.71,-1.61 2.15,-0.83 4.44,-0.12 9.06,-1.48l4.76 -0.87c2.32,-0.68 1.37,-0.69 2.43,-1.08 2.6,-0.96 3.6,-0.59 7.68,-2.16l5.48 -1.55c1.6,-0.44 1.22,-0.39 3.12,-0.39 0.3,3.63 11.24,12.84 14.28,13.83 3.49,1.14 7.31,1.76 10.57,3.5 1.9,1.01 -1.18,0.95 1.86,0.95 11.19,0 6.13,0.18 14.65,-2.23l7.21 -2.62c3.69,-1.92 7.49,-5.21 10.67,-8.32 1.8,-1.77 1.58,-1.32 2.73,-3.59 1.34,-2.68 1.73,-1.84 1.99,-5.04 2.81,0.24 6.81,3.77 7.56,6.5 1.02,3.67 0.18,147.51 0.17,160.1 0,3.82 -0.02,7.76 0.96,10.99 0.96,3.18 0.63,3.74 3.06,6.07 3.7,3.54 7.54,8.64 12.93,9.57 1.93,0.34 4.96,-0.08 6.99,0.04 3.05,0.16 3.59,1.09 5.59,2.14l10.35 -5.1c3.11,-1.25 2.39,-0.88 4.6,-3.14l11.6 -11.59c2.02,-2.16 1.58,-2.61 3,-4.73l7.07 -9.1c1.45,-2.21 0.81,-2.29 2.89,-4.84 2.07,-2.52 4.48,-5.37 5.69,-8.37 1.76,-4.39 4.3,-6.39 6.22,-10.65l9.24 -18.17c0.77,-1 1.45,-1.28 1.97,-2.25 0.81,-1.51 1.42,-5.23 4.51,-10.96 0.98,-1.83 1.7,-3.34 2.55,-5.17l8.28 -19.14c0.66,-2.28 0.19,-1.09 1.02,-3.19l5.64 -13.34c0.53,-1.53 0.29,-1.88 0.82,-3.4 0.55,-1.61 1.94,-3.19 2.6,-5.13 1.86,-5.44 3.2,-7.38 4.08,-11.38 0.4,-1.77 0.09,-1.73 1.33,-2.9 1.69,-1.6 4.08,-1.38 6.34,-1.38 3.04,0 0.29,1.83 5.61,2.12 5.54,0.31 2.96,-0.27 7.04,1.39 3.05,1.24 3.62,0.21 6.79,0.94l7.25 1.19c3.92,0.4 1.87,1.49 5.71,2.02 4.31,0.6 2.64,-0.34 7.36,1.08 2.7,0.8 4.6,0.07 7.28,0.45 4.02,0.59 1.67,1.85 9.93,2.02 3.79,0.08 2.98,1.23 6.97,1.46 10.13,0.59 5.78,1.26 9.94,2.01 2.34,0.42 5.94,-0.27 8.28,0.15 3.11,0.56 1.63,1.68 5.69,2.04 2.71,0.25 5.6,-0.41 8.22,0.23 6.57,1.61 4.87,0.95 11.53,1.12 4.44,0.11 4.48,2.25 9.75,2.2 8.5,-0.1 8.18,1.45 14.77,1.39 17.37,-0.16 7.85,2.12 22.51,2.09 13.74,-0.03 8.97,1.86 14.73,2.14 5.17,0.26 11.13,-0.41 16.23,-0.07 4.72,0.32 1.3,1.44 14.73,1.44l24.64 -0.04c4.78,0.23 4.04,2.15 6.28,2.15l70.99 0c2.49,0 -0.22,-2.13 12.65,-2.11 5.16,0.01 18.37,0.9 22.97,-0.23l6.52 -1.21c30.64,0.13 9.37,-2.19 28.15,-2.07 9.69,0.06 8.21,-1.89 13.32,-2.15 2.35,-0.11 5.51,0.29 7.75,0.02 4.12,-0.48 1.05,-1.28 6.29,-1.44 2.26,-0.06 5.69,0.31 7.79,0.06 4.76,-0.57 0.87,-1.59 5.61,-2.13 5.36,-0.6 3.01,0.38 9.37,-1.16 4.61,-1.12 5.34,0.72 10.35,-1.6 2.9,-1.35 3.46,-0.51 7.03,-0.7 4.48,-0.24 2.58,-1.99 9.11,-2.14l10.45 -1.5c4.04,-0.74 0.39,-1.75 5.66,-2.07 7.05,-0.43 7.3,0.19 13.04,-1.72 3.92,-1.31 0.51,-1.12 5.92,-1.81 2.65,-0.34 1.22,-0.15 2.88,-0.64 1.87,-0.54 0.91,-0.33 3.48,-0.73 3.6,-0.57 3.31,-1.38 5.85,-1.88 7.27,-1.44 2.68,-0.46 6.54,-1.91 2.14,-0.8 4.12,-0.41 6.04,-0.99l19.8 -6.2c1.58,-0.34 2.45,-0.08 3.87,-0.35 2.84,-0.53 0.24,0.07 2.44,-1.07 1.26,-0.65 -0.07,-0.16 1.43,-0.68l24.61 -7.72c0.16,-0.06 0.33,-0.16 0.48,-0.22 0.14,-0.07 0.31,-0.19 0.45,-0.26l16.63 -6.56c0.9,-0.3 0.89,-0.17 1.73,-0.38 3.43,-0.87 5.23,-2.57 8.55,-3.4l4.37 -1.25c0.82,-0.21 0.86,-0.11 1.72,-0.39 0.17,-0.06 0.36,-0.12 0.52,-0.18l9.91 -4.86c5.46,-1.63 10.25,-4.35 15.42,-7.07l31.72 -14.67c3.33,-1.58 3.91,-3.23 9.6,-5.86 5.16,-2.4 10.17,-5.08 14.7,-8.49 2.69,-2.03 1.01,-1.8 4.88,-2.85 4.65,-1.27 7,-4.9 11.34,-6.94 1.45,-0.68 1.52,-0.54 2.78,-1.44 0.86,-0.62 1.02,-0.96 1.9,-1.61l4.53 -3.2c1.83,-1.3 0.88,-0.46 2.79,-1.43l6.79 -4.46c1.54,-0.88 1.02,-0.84 2.39,-1.83 2.41,-1.75 2.12,-0.77 4.52,-3.21 2.35,-2.38 1.53,-1.84 4.47,-3.26 2.93,-1.42 1.89,-1.55 4.04,-2.99 1.67,-1.11 3.41,-1.41 5.26,-2.47 3.5,-2.01 4.47,-5.01 12.71,-10.49 2.72,-1.8 2.11,-2.13 3.85,-3.88 1.6,-1.6 4.35,-2.45 8.66,-6.8 0.92,-0.91 2.64,-2.87 3.55,-3.48 2.81,-1.91 1.91,0.08 4.93,-2.8 3.89,-3.73 7.38,-8.25 11.55,-11.64 2.26,-1.84 2.21,-0.85 4.6,-3.13l18.34 -18.22c0.11,-0.1 0.26,-0.24 0.37,-0.34 4.19,-4.01 13.01,-12.14 15.64,-16.68 1.15,-1.99 1.82,-2.42 3.58,-4.16 2.65,-2.61 4.75,-4.75 7.38,-7.38 7.77,-7.76 2.19,-3.64 10.56,-12.63 1.85,-1.99 1.59,-2.63 3.16,-4.57 4.73,-5.85 2.56,-2.2 6.76,-8.71 0.99,-1.54 2.23,-2.14 3.41,-3.61 1.79,-2.23 1.01,-2.75 2.81,-4.93l5.03 -6.21c2.15,-3.23 2,-1.53 5.04,-6.92 1.52,-2.7 4.98,-6.08 6.47,-8.99 2.98,-5.81 7.22,-10.67 10.43,-15.57 0.79,-1.21 0.64,-1.55 1.37,-2.85 1.06,-1.88 1.89,-2.09 3.28,-4.45 0.29,-0.48 0.98,-1.84 1.19,-2.33 1.36,-3.16 2.84,-3.92 4.54,-7.41l6.97 -12c4.3,-7.52 5.14,-8 9.64,-17.78 1.1,-2.38 1.36,-2.93 2.89,-4.84l2.97 -4.76c1.95,-2.62 2.46,-1.05 2.9,-4.84 0.15,-1.34 -0.07,-1.77 0.25,-3.26 0.79,-3.72 1.18,1.53 1.18,-11.48 0,-2.78 -0.5,-0.02 -1.17,-3.05 -0.84,-3.77 -0.96,-6.66 -3.57,-9.78 -2,-2.38 -2.53,-1.74 -4.11,-5.04 -1.12,-2.36 0.2,-0.6 -1.5,-2.71 -2.43,-3.03 -5.03,-2.81 -7.78,-5.57 -5.16,-5.19 -4.37,-4.45 -10.02,-8.26 -2.82,-1.89 -2.37,-3.27 -4.38,-4.75 -2.71,-2 -2.05,0.16 -5.28,-3.16l-15.42 -11.99c-2.71,-2.73 -3.08,-1.67 -5.62,-3.52l-14.08 -10.52c-1.4,-1.09 -0.55,-0.47 -1.77,-1.04l-5.1 -3.34c-1.75,-1.11 -0.68,-0.06 -2.59,-1.62 -1.72,-1.41 -0.77,-1.09 -2.79,-2.14l-8.73 -5.32c-0.15,-0.07 -0.34,-0.14 -0.49,-0.21l-12.98 -8.12c-6,-3.11 -10.92,-6.65 -17.16,-9.54 -0.65,-0.31 -2.22,-1.08 -2.76,-1.46 -1.23,-0.85 -1.44,-1.46 -2.65,-2.27 -4.8,-3.19 -10.68,-4.13 -15.64,-6.85 -3.57,-1.96 -8.83,-3.61 -12.02,-6.26 -4.53,-3.74 -10.09,-4.97 -15.03,-7.46l-9.42 -3.94c-2.94,-0.74 -3.16,-1.75 -6.29,-2.85l-20.18 -6.52c-1.81,-0.42 -0.87,-0.58 -3.5,-1.42l-6.5 -2.64c-3.65,-2.21 -4.29,-0.04 -13.08,-4.49 -2.84,-1.44 -2.95,-2.03 -6.66,-2.48 -1.01,-0.12 -0.78,0 -1.86,-0.24l-8.32 -2.94c-1.78,-0.51 -2.54,-0.16 -4.34,-0.57l-2.58 -0.94c-7.9,-2.87 -4.58,-1.49 -12.43,-2.33 -3.81,-0.41 -1.72,-1.46 -7.02,-2.11 -1.02,-0.13 -0.74,0 -1.85,-0.26 -2.33,-0.55 0.48,0.1 -1.56,-0.55l-3.63 -0.59c-1.89,-0.07 -2.1,0.24 -3.82,-0.39l-3.67 -1.96c-2.43,-1.06 -4.68,-0.9 -7.25,-1.18 -5,-0.54 -0.54,-1.93 -7.03,-2.12 -7.53,-0.21 -2.83,-2.19 -16.18,-2.08 -1.24,0.01 -3.08,0.1 -4.25,0.02 -4.17,-0.28 -1.51,-0.32 -3.88,-1.03 -2.83,-0.86 -5.73,-0.12 -8.74,-0.4 -4.41,-0.4 -2.35,-1.67 -6.32,-2.11 -2.68,-0.31 -6.46,0.3 -9.14,0 -4.09,-0.46 -1.9,-1.9 -6.99,-2.15 -2.92,-0.14 -6.13,0.5 -8.95,-0.19l-7.95 -1.19c-5.61,0.05 -12.69,0.89 -18.2,-0.07 -2.84,-0.49 -2.78,-2.03 -7.11,-2.03l-35.14 0c-4.91,0 -2.69,2.15 -14.76,2.11 -9.75,-0.02 -9.63,1.46 -15.44,1.44 -5.63,-0.02 -11.26,-0.02 -16.9,-0.03 -10.06,-0.03 -4.42,-0.29 -11.17,1.59 -1.86,0.52 -2.18,-0.48 -2.18,-3 0,-2.3 9.41,-10.47 11.42,-12.47l5.25 -6.7c2.15,-3.98 5.24,-4.99 7.74,-9.84 2.04,-3.95 7.46,-9.31 12.56,-19.77l0.49 -0.91c0.08,-0.14 0.19,-0.3 0.27,-0.44l3.8 -7.45c0.07,-0.13 0.18,-0.31 0.25,-0.45 0.08,-0.13 0.17,-0.31 0.25,-0.45 2.06,-3.88 2.76,-7.59 4.69,-11.48l7.72 -22.5c0.78,-2.77 0.01,-5.6 1.12,-8.02 1.34,-2.88 1.17,0.25 1.41,-4.22 0.57,-10.82 1.07,-5.63 1.4,-10.54 0.12,-1.82 -0.02,-4.47 -0.04,-6.37 -0.07,-8.47 2.12,-8.97 2.12,-10.53l0 -13.36c0,-2.24 -1.92,-1.51 -2.15,-6.29 -0.21,-4.28 0.53,-9.08 0.02,-13.38 -0.42,-3.61 -0.49,-1.01 -1.16,-3.76 -0.67,-2.77 0.3,-5.95 -0.6,-8.53 -0.52,-1.48 -0.76,-0.64 -1.4,-2.81 -1.16,-3.93 -0.98,-7.52 -2.07,-11.29l-4.88 -13.4c-0.49,-1.57 -0.23,-2.06 -0.75,-3.46 -1.3,-3.5 -0.15,-0.32 -1.83,-2.4l-5.85 -14.53c-0.88,-2.46 -3.04,-4.28 -4.28,-6.97l-6.62 -11.65c-0.76,-1.27 -1.39,-1.4 -2.24,-2.68l-3.45 -5.69c0.63,-0.94 0.9,-1.45 1.92,-2.31 1.94,-1.64 1.3,-0.66 3.08,-1.84 1.84,-1.22 3.02,-3.33 4.78,-4.36 1.66,-0.96 1.29,-0.3 2.94,-1.27 1.79,-1.04 3.02,-3.24 4.78,-4.36 1.62,-1.03 1.42,-0.35 3.17,-1.75l22.58 -23.81c1.77,-2.88 2.57,-2.45 5.62,-7.74 0.92,-1.6 1.22,-1.38 2.21,-2.7l11.99 -29.49c0.89,-2.5 1.6,-1.05 1.6,-3.32l0 -26.01c0,-1.78 -1.74,-3.2 -2.12,-6.32l-3.37 -9.98c-0.59,-1.15 -1,-2.56 -1.42,-3.49 -1.44,-3.14 -2.3,-2.31 -3.83,-5.32 -0.98,-1.93 -0.08,-0.98 -1.41,-2.8l-11.56 -11.64c-2.06,-1.6 -5.11,-0.78 -5.11,-4.03 0,-2.14 3.72,-4.65 5.12,-6.12 1.98,-2.07 0.98,-1.23 2.28,-3.35 0.99,-1.62 1.37,-1.74 2.63,-2.99 1.71,-1.7 1.23,-1.02 2.33,-3.3 2.13,-4.43 9.22,-12.94 11.37,-17.44 2.45,-5.13 5.84,-9.03 8.2,-14.29l4.95 -9.81c1.41,-2.61 0.87,-3.7 2.15,-6.29 16.18,-39.53 17.2,-77.38 17.2,-121.27 0,-26.35 -28.15,-112.32 -50.1,-140.39 -2.31,-2.94 -0.23,-3.08 -2.59,-6.55l-13.19 -20.55c-1.77,-2.08 -0.69,-0.89 -1.97,-2.94l-7.48 -11.5c-1.34,-2.62 -2.83,-2.81 -4.43,-5.42 -2.85,-4.64 -6.17,-6.01 -8.29,-10.68l-11.45 -13.86c-0.11,-0.1 -0.27,-0.23 -0.37,-0.33 -2.29,-2.12 -3.15,-5.11 -5.37,-7.29 -9.67,-9.5 -11.59,-8.75 -11.45,-16.65 0.24,-14.16 -10.37,-81 -13.74,-92.41 -0.78,-2.66 -0.38,0.67 -0.95,-3.27 -2.87,-20.03 -14.68,-50.35 -22.37,-69 -2.07,-4.2 -3.73,-8.83 -6.4,-12.58 -4.06,-4.78 -15.54,-19.58 -22.49,-19.58 -12.76,0 -30.87,3.88 -44.78,12.26 -28.98,14.05 -65.62,41.55 -83.25,67.87z"/>
  </g>
 </g>
</svg>
