<?xml version="1.0" encoding="UTF-8"?>
<!DOCTYPE svg PUBLIC "-//W3C//DTD SVG 1.1//EN" "http://www.w3.org/Graphics/SVG/1.1/DTD/svg11.dtd">
<!-- Creator: CorelDRAW 2019 (64-Bit) -->
<svg xmlns="http://www.w3.org/2000/svg" xml:space="preserve" width="16.9332mm" height="16.9332mm" version="1.1" style="shape-rendering:geometricPrecision; text-rendering:geometricPrecision; image-rendering:optimizeQuality; fill-rule:evenodd; clip-rule:evenodd"
viewBox="0 0 1693.32 1693.32"
 xmlns:xlink="http://www.w3.org/1999/xlink">
 <defs>
  <style type="text/css">
   <![CDATA[
    .fil0 {fill:black;fill-rule:nonzero}
   ]]>
  </style>
 </defs>
 <g id="Layer_x0020_1">
  <metadata id="CorelCorpID_0Corel-Layer"/>
  <path class="fil0" d="M293.95 1033.4l196.14 196.21c-101.35,-97.82 -185.57,-180.74 -196.14,-196.21zm-95.28 -183.49l0 -837.06c0,-7.09 5.77,-12.85 12.86,-12.85l1270.27 0c7.09,0 12.85,5.76 12.85,12.85l0 1667.63c0,7.09 -5.76,12.85 -12.85,12.85l-439.71 0c-34.43,0 -67.38,-6.85 -97.52,-19.24l-0.68 -0.26c-31.13,-12.9 -59.24,-31.78 -82.87,-55.16l-0.74 -0.68c-1.52,-1.52 -479.56,-479.58 -571.63,-583.85 -4.77,2.27 -10.65,1.42 -14.58,-2.53 -23.7,-23.72 -42.84,-52.05 -55.88,-83.48 -12.57,-30.3 -19.52,-63.49 -19.52,-98.22zm989.99 -42.51l-683.99 0c-7.09,0 -12.85,-5.76 -12.85,-12.86l0 -97.71c0,-7.09 5.76,-12.85 12.85,-12.85l683.99 0c7.09,0 12.85,5.76 12.85,12.85l0 97.71c0,7.1 -5.76,12.86 -12.85,12.86zm0 -195.41l-683.99 0c-7.09,0 -12.85,-5.77 -12.85,-12.86l0 -97.72c0,-7.09 5.76,-12.85 12.85,-12.85l683.99 0c7.09,0 12.85,5.76 12.85,12.85l0 97.72c0,7.09 -5.76,12.86 -12.85,12.86zm0 -195.44l-683.99 0c-7.09,0 -12.85,-5.76 -12.85,-12.85l0 -97.71c0,-7.09 5.76,-12.86 12.85,-12.86l683.99 0c7.09,0 12.85,5.77 12.85,12.86l0 97.71c0,7.09 -5.76,12.85 -12.85,12.85zm-664.82 690.5l261.12 261.11 0 -261.11 -261.12 0zm518.25 462.85l329.15 0 0 -1446.48 -1049.14 0 0 726.49c0,36.87 15.01,70.31 39.21,94.51 24.2,24.2 57.64,39.21 94.5,39.21l439.71 0c7.09,0 12.85,5.76 12.85,12.86l0 439.7c0,36.86 15.02,70.31 39.22,94.51 24.2,24.2 57.64,39.2 94.5,39.2z"/>
 </g>
</svg>
