<?xml version="1.0" encoding="UTF-8"?>
<!DOCTYPE svg PUBLIC "-//W3C//DTD SVG 1.1//EN" "http://www.w3.org/Graphics/SVG/1.1/DTD/svg11.dtd">
<!-- Creator: CorelDRAW 2019 (64-Bit) -->
<svg xmlns="http://www.w3.org/2000/svg" xml:space="preserve" width="16.9332mm" height="16.9332mm" version="1.1" style="shape-rendering:geometricPrecision; text-rendering:geometricPrecision; image-rendering:optimizeQuality; fill-rule:evenodd; clip-rule:evenodd"
viewBox="0 0 1693.32 1693.32"
 xmlns:xlink="http://www.w3.org/1999/xlink">
 <defs>
  <style type="text/css">
   <![CDATA[
    .fil0 {fill:black;fill-rule:nonzero}
   ]]>
  </style>
 </defs>
 <g id="Layer_x0020_1">
  <metadata id="CorelCorpID_0Corel-Layer"/>
  <path class="fil0" d="M1643.71 1246.84l-1181.65 0 -28.11 -112.45 1021.24 0c22.78,0 42.62,-15.5 48.13,-37.58l158.75 -635c7.84,-31.32 -15.91,-61.64 -48.13,-61.64l-188.51 0 0 -267.89c0,-27.4 -22.21,-49.61 -49.61,-49.61l-661.46 0c-27.4,0 -49.61,22.21 -49.61,49.61l0 56.23 -214.97 0c-27.41,0 -49.61,22.2 -49.61,49.61l0 162.05 -149.77 0 -43.53 -174.08c-5.51,-22.08 -25.36,-37.58 -48.13,-37.58l-109.14 0c-27.41,0 -49.61,22.2 -49.61,49.61 0,27.4 22.2,49.61 49.61,49.61l70.4 0 255.19 1020.75c5.52,22.08 25.36,37.58 48.13,37.58l76.19 0c-61.34,119.65 25.44,264.58 161.94,264.58 136.47,0 223.29,-144.91 161.93,-264.58l416.96 0c-61.34,119.65 25.44,264.58 161.94,264.58 136.47,0 223.29,-144.91 161.93,-264.58l79.5 0c27.41,0 49.61,-22.2 49.61,-49.61 0,-27.4 -22.2,-49.61 -49.61,-49.61zm-1289.13 -429.95l215.21 0 54.57 218.29 -215.21 0 -54.57 -218.29zm521.84 -317.5l0 218.28 -229.15 0 -54.57 -218.28 283.72 0zm382.94 0l-54.57 218.28 -229.15 0 0 -218.28 283.72 0zm-283.72 535.79l0 -218.29 204.34 0 -54.57 218.29 -149.77 0zm-99.22 -218.29l0 218.29 -149.78 0 -54.57 -218.29 204.35 0zm540.03 218.29l-188.75 0 54.57 -218.29 188.75 0 -54.57 218.29zm79.38 -317.51l-188.76 0 54.57 -218.28 188.76 0 -54.57 218.28zm-731.86 -535.78l562.24 0 0 218.28 -562.24 0c0,-52.74 0,-166.6 0,-218.28zm-264.58 105.84l165.36 0 0 112.44 -165.36 0 0 -112.44zm-8.97 211.66l54.57 218.28 -215.22 0 -54.57 -218.28 215.22 0zm253.71 929.35c0,45.6 -37.09,82.69 -82.68,82.69 -45.6,0 -82.69,-37.09 -82.69,-82.69 0,-45.59 37.09,-82.68 82.69,-82.68 45.59,0 82.68,37.09 82.68,82.68zm740.83 0c0,45.6 -37.09,82.69 -82.68,82.69 -45.6,0 -82.68,-37.09 -82.68,-82.69 0,-45.59 37.08,-82.68 82.68,-82.68 45.59,0 82.68,37.09 82.68,82.68z"/>
 </g>
</svg>
