<?xml version="1.0" encoding="UTF-8"?>
<!DOCTYPE svg PUBLIC "-//W3C//DTD SVG 1.1//EN" "http://www.w3.org/Graphics/SVG/1.1/DTD/svg11.dtd">
<!-- Creator: CorelDRAW 2019 (64-Bit) -->
<svg xmlns="http://www.w3.org/2000/svg" xml:space="preserve" width="16.9332mm" height="16.9332mm" version="1.1" style="shape-rendering:geometricPrecision; text-rendering:geometricPrecision; image-rendering:optimizeQuality; fill-rule:evenodd; clip-rule:evenodd"
viewBox="0 0 1693.32 1693.32"
 xmlns:xlink="http://www.w3.org/1999/xlink">
 <defs>
  <style type="text/css">
   <![CDATA[
    .fil0 {fill:#272326;fill-rule:nonzero}
   ]]>
  </style>
 </defs>
 <g id="Layer_x0020_1">
  <metadata id="CorelCorpID_0Corel-Layer"/>
  <g id="_2457431824496">
   <path class="fil0" d="M1045.09 496.09c-30.46,0 -58.77,9.27 -82.38,25.04l-173.09 -129.78c4.4,-14.02 7.43,-28.64 7.43,-44.09 0,-82.06 -66.76,-148.82 -148.83,-148.82 -82.07,0 -148.83,66.76 -148.83,148.82 0,15.45 3.04,30.07 7.43,44.09l-173.09 129.78c-23.61,-15.77 -51.92,-25.04 -82.38,-25.04 -82.07,0 -148.83,66.76 -148.83,148.83 0,82.07 66.76,148.83 148.83,148.83 82.06,0 148.83,-66.76 148.83,-148.83 0,-15.45 -3.04,-30.07 -7.43,-44.09l173.09 -129.78c23.61,15.77 51.91,25.04 82.38,25.04 30.47,0 58.77,-9.27 82.38,-25.04l173.09 129.78c-4.39,14.02 -7.42,28.64 -7.42,44.09 0,82.07 66.76,148.83 148.82,148.83 82.07,0 148.83,-66.76 148.83,-148.83 0,-33.29 -11.37,-63.74 -29.91,-88.56l242.73 -263.37c11.35,2.78 23.03,4.66 35.23,4.66 82.06,0 148.82,-66.76 148.82,-148.82 0,-82.07 -66.76,-148.83 -148.82,-148.83 -82.07,0 -148.83,66.76 -148.83,148.83 0,33.28 11.37,63.73 29.91,88.55l-242.73 263.38c-11.35,-2.78 -23.03,-4.67 -35.23,-4.67z"/>
   <path class="fil0" d="M549 793.75c-27.42,0 -49.61,22.18 -49.61,49.6l0 651.54 297.66 0 0 -651.54c0,-27.42 -22.19,-49.6 -49.61,-49.6l-198.44 0z"/>
   <path class="fil0" d="M945.88 992.18c-27.42,0 -49.61,22.19 -49.61,49.61l0 453.1 297.65 0 0 -453.1c0,-27.42 -22.19,-49.61 -49.61,-49.61l-198.43 0z"/>
   <path class="fil0" d="M1342.75 595.31c-27.42,0 -49.61,22.19 -49.61,49.61l0 849.97 297.65 0 0 -849.97c0,-27.42 -22.18,-49.61 -49.6,-49.61l-198.44 0z"/>
   <path class="fil0" d="M152.13 1091.4c-27.42,0 -49.61,22.19 -49.61,49.61l0 353.88 297.66 0 0 -353.88c0,-27.42 -22.19,-49.61 -49.61,-49.61l-198.44 0z"/>
   <path class="fil0" d="M1643.71 1594.11c-221.54,0 -323.22,0 -363.37,0 -18.36,0 -24.92,0 -24.87,0 -73.1,0 -345.18,0 -1205.87,0 -27.42,0 -49.61,22.18 -49.61,49.6 0,27.43 22.19,49.61 49.61,49.61 600.34,0 1033.3,0 1594.11,0 27.42,0 49.61,-22.18 49.61,-49.61 0,-27.42 -22.19,-49.6 -49.61,-49.6z"/>
  </g>
 </g>
</svg>
