<?xml version="1.0" encoding="UTF-8"?>
<!DOCTYPE svg PUBLIC "-//W3C//DTD SVG 1.1//EN" "http://www.w3.org/Graphics/SVG/1.1/DTD/svg11.dtd">
<!-- Creator: CorelDRAW 2019 (64-Bit) -->
<svg xmlns="http://www.w3.org/2000/svg" xml:space="preserve" width="16.9332mm" height="16.9332mm" version="1.1" style="shape-rendering:geometricPrecision; text-rendering:geometricPrecision; image-rendering:optimizeQuality; fill-rule:evenodd; clip-rule:evenodd"
viewBox="0 0 1693.32 1693.32"
 xmlns:xlink="http://www.w3.org/1999/xlink">
 <defs>
  <style type="text/css">
   <![CDATA[
    .fil0 {fill:#FDBC3E;fill-rule:nonzero}
   ]]>
  </style>
 </defs>
 <g id="Layer_x0020_1">
  <metadata id="CorelCorpID_0Corel-Layer"/>
  <path class="fil0" d="M881.79 1016.09c40.39,-9.92 70.25,-35.92 70.25,-65.79 0,-29.87 -29.86,-55.88 -70.25,-65.79l0 131.58zm428.71 337.47c-21.65,0 -39.2,-17.56 -39.2,-39.2 0,-21.64 17.55,-39.2 39.2,-39.2l186.98 0c10.34,-2.21 21.54,-0.23 30.83,6.38 12.69,9.02 18.36,24.23 15.85,38.61l0 188.68c0,21.64 -17.56,39.19 -39.2,39.19 -21.64,0 -39.2,-17.55 -39.2,-39.19l0 -84.79c-66.02,70.77 -144.05,130.21 -230.84,175.09 -116.41,60.19 -248.45,94.2 -388.26,94.2 -233.78,0 -445.46,-94.78 -598.68,-247.99 -153.21,-153.22 -247.99,-364.89 -247.99,-598.68 0,-47.71 4.04,-94.84 11.79,-141.01 7.81,-46.63 19.59,-92.26 34.95,-136.53 7.01,-20.37 29.23,-31.2 49.6,-24.18 20.38,7.01 31.21,29.23 24.19,49.6 -13.75,39.63 -24.39,81.06 -31.58,123.97 -6.93,41.34 -10.55,84.16 -10.55,128.15 0,212.16 85.99,404.24 225.01,543.26 139.02,139.02 331.1,225.01 543.26,225.01 127.16,0 247.01,-30.8 352.43,-85.31 85.66,-44.29 161.95,-104.24 225.04,-176.06l-113.63 0zm-927.68 -1013.8c21.65,0 39.2,17.56 39.2,39.2 0,21.64 -17.55,39.2 -39.2,39.2l-186.98 0c-10.34,2.21 -21.54,0.23 -30.83,-6.38 -12.69,-9.02 -18.36,-24.23 -15.85,-38.61l0 -188.68c0,-21.64 17.56,-39.19 39.2,-39.19 21.64,0 39.2,17.55 39.2,39.19l0 84.79c66.02,-70.77 144.05,-130.21 230.84,-175.09 116.41,-60.19 248.45,-94.2 388.26,-94.2 233.79,0 445.46,94.78 598.68,247.99 153.21,153.22 247.99,364.9 247.99,598.68 0,43.64 -3.34,87.14 -9.97,130.11 -6.51,42.15 -16.47,84.46 -29.83,126.54 -6.51,20.55 -28.45,31.92 -48.99,25.42 -20.55,-6.51 -31.92,-28.45 -25.42,-48.99 11.72,-36.89 20.66,-75.32 26.77,-114.92 6.01,-38.98 9.04,-78.5 9.04,-118.16 0,-212.16 -85.99,-404.24 -225.01,-543.26 -139.02,-139.02 -331.1,-225.01 -543.26,-225.01 -127.16,0 -247.01,30.8 -352.43,85.31 -85.66,44.29 -161.95,104.24 -225.04,176.06l113.63 0zm463.84 119.09c-213.06,0 -386.41,173.35 -386.41,386.41 0,213.06 173.35,386.41 386.41,386.41 213.06,0 386.41,-173.35 386.41,-386.41 0,-213.06 -173.35,-386.41 -386.41,-386.41zm-35.13 214.89c-40.39,9.92 -70.25,35.91 -70.25,65.79 0,29.87 29.86,55.87 70.25,65.78l0 -131.57zm35.13 -427.99c-329.29,0 -599.52,270.22 -599.52,599.51 0,329.28 270.23,599.52 599.52,599.52 329.29,0 599.52,-270.24 599.52,-599.52 0,-329.29 -270.23,-599.51 -599.52,-599.51zm0 1056.17c-251.8,0 -456.66,-204.86 -456.66,-456.66 0,-251.8 204.86,-456.66 456.66,-456.66 251.8,0 456.66,204.86 456.66,456.66 0,251.8 -204.86,456.66 -456.66,456.66zm175.64 -351.62c0,67.87 -60.44,124.62 -140.51,137.67l0 38.3c0,19.43 -15.71,35.14 -35.13,35.14 -19.42,0 -35.13,-15.71 -35.13,-35.14l0 -38.3c-80.07,-13.05 -140.51,-69.8 -140.51,-137.67 0,-19.42 15.71,-35.13 35.13,-35.13 19.42,0 35.13,15.71 35.13,35.13 0,29.87 29.86,55.87 70.25,65.79l0 -138.89c-80.07,-13.05 -140.51,-69.8 -140.51,-137.67 0,-67.86 60.44,-124.62 140.51,-137.66l0 -37.97c0,-19.43 15.71,-35.14 35.13,-35.14 19.42,0 35.13,15.71 35.13,35.14l0 37.97c80.07,13.04 140.51,69.8 140.51,137.66 0,19.42 -15.71,35.13 -35.13,35.13 -19.42,0 -35.13,-15.71 -35.13,-35.13 0,-29.87 -29.86,-55.87 -70.25,-65.79l0 138.89c80.07,13.05 140.51,69.81 140.51,137.67z"/>
 </g>
</svg>
